<?xml version="1.0" encoding="UTF-8"?>
<!DOCTYPE score-partwise PUBLIC "-//Recordare//DTD MusicXML 3.1 Partwise//EN" "http://www.musicxml.org/dtds/partwise.dtd">
<score-partwise version="3.0">
	<work>
		<work-title/>
	</work>
	<identification>
		<creator type="composer">Brahms</creator>
		<encoding>
			<software>Maestria_v2.7.2</software>
			<encoding-date>2026-02-05</encoding-date>
			<supports element="accidental" type="yes"/>
			<supports element="beam" type="yes"/>
			<supports attribute="new-page" element="print" type="yes" value="yes"/>
			<supports attribute="new-system" element="print" type="yes" value="yes"/>
			<supports element="stem" type="yes"/>
		</encoding>
	</identification>
	<part-list>
		<score-part id="P1">
			<part-name/>
			<score-instrument id="P1-I1">
				<instrument-name>part 0</instrument-name>
				<instrument-sound>keyboard.piano</instrument-sound>
				<solo/>
			</score-instrument>
		</score-part>
	</part-list>
	<part id="P1">
		<measure number="1">
			<attributes>
				<divisions>4</divisions>
				<key>
					<fifths>-3</fifths>
				</key>
				<time>
					<beats>3</beats>
					<beat-type>4</beat-type>
				</time>
				<staves>2</staves>
				<clef number="1">
					<sign>G</sign>
					<line>2</line>
				</clef>
				<clef number="2">
					<sign>F</sign>
					<line>4</line>
				</clef>
			</attributes>
			<direction placement="above">
				<direction-type>
					<words>Moderato</words>
				</direction-type>
				<sound tempo="100"/>
			</direction>
			<note>
				<pitch>
					<step>C</step>
					<octave>4</octave>
				</pitch>
				<duration>3</duration>
				<voice>1</voice>
				<type>eighth</type>
				<dot/>
				<stem>up</stem>
				<staff>1</staff>
				<beam number="1">begin</beam>
				<notations>
					<technical>
						<fingering>1</fingering>
					</technical>
					<slur type="start" number="1"/>
				</notations>
			</note>
			<note>
				<pitch>
					<step>D</step>
					<octave>4</octave>
				</pitch>
				<duration>1</duration>
				<voice>1</voice>
				<type>16th</type>
				<stem>up</stem>
				<staff>1</staff>
				<beam number="1">end</beam>
				<beam number="2">backward hook</beam>
				<notations>
					<slur type="continue" number="1"/>
				</notations>
			</note>
			<backup>
				<duration>4</duration>
			</backup>
			<note>
				<rest/>
				<duration>4</duration>
				<voice>2</voice>
				<type>quarter</type>
				<staff>2</staff>
			</note>
			<barline location="right">
				<bar-style>heavy-light</bar-style>
			</barline>
		</measure>
		<measure number="2">
			<barline location="left">
				<bar-style>heavy-light</bar-style>
				<repeat direction="forward" times="2"/>
			</barline>
			<attributes>
				<divisions>2</divisions>
				<staves>2</staves>
			</attributes>
			<harmony>
				<root>
					<root-step>C</root-step>
				</root>
				<kind parentheses-degrees="no">minor</kind>
			</harmony>
			<note>
				<pitch>
					<step>E</step>
					<alter>-1</alter>
					<octave>4</octave>
				</pitch>
				<duration>6</duration>
				<voice>1</voice>
				<type>half</type>
				<dot/>
				<stem>up</stem>
				<staff>1</staff>
				<notations>
					<slur type="continue" number="1"/>
				</notations>
			</note>
			<backup>
				<duration>6</duration>
			</backup>
			<note>
				<rest/>
				<duration>1</duration>
				<voice>2</voice>
				<type>eighth</type>
				<staff>2</staff>
			</note>
			<note>
				<pitch>
					<step>G</step>
					<octave>3</octave>
				</pitch>
				<duration>1</duration>
				<voice>2</voice>
				<type>eighth</type>
				<stem>up</stem>
				<staff>2</staff>
				<notations>
					<slur type="continue" number="1"/>
				</notations>
			</note>
			<note>
				<pitch>
					<step>C</step>
					<octave>4</octave>
				</pitch>
				<duration>2</duration>
				<voice>2</voice>
				<type>quarter</type>
				<stem>up</stem>
				<staff>2</staff>
				<notations>
					<slur type="continue" number="1"/>
				</notations>
			</note>
			<note>
				<pitch>
					<step>G</step>
					<octave>3</octave>
				</pitch>
				<duration>2</duration>
				<voice>2</voice>
				<type>quarter</type>
				<stem>up</stem>
				<staff>2</staff>
				<notations>
					<slur type="continue" number="1"/>
				</notations>
			</note>
			<backup>
				<duration>6</duration>
			</backup>
			<note>
				<pitch>
					<step>C</step>
					<octave>3</octave>
				</pitch>
				<duration>6</duration>
				<voice>3</voice>
				<type>half</type>
				<dot/>
				<stem>down</stem>
				<staff>2</staff>
				<notations>
					<technical>
						<fingering>5</fingering>
					</technical>
					<slur type="continue" number="1"/>
				</notations>
			</note>
		</measure>
		<measure number="3">
			<attributes>
				<divisions>4</divisions>
				<staves>2</staves>
			</attributes>
			<harmony>
				<root>
					<root-step>F</root-step>
				</root>
				<kind parentheses-degrees="no">minor</kind>
			</harmony>
			<note>
				<pitch>
					<step>G</step>
					<octave>4</octave>
				</pitch>
				<duration>3</duration>
				<voice>1</voice>
				<type>eighth</type>
				<dot/>
				<stem>up</stem>
				<staff>1</staff>
				<beam number="1">begin</beam>
				<notations>
					<slur type="continue" number="1"/>
				</notations>
			</note>
			<note>
				<pitch>
					<step>F</step>
					<octave>4</octave>
				</pitch>
				<duration>1</duration>
				<voice>1</voice>
				<type>16th</type>
				<stem>up</stem>
				<staff>1</staff>
				<beam number="1">end</beam>
				<beam number="2">backward hook</beam>
				<notations>
					<slur type="continue" number="1"/>
				</notations>
			</note>
			<note>
				<pitch>
					<step>D</step>
					<octave>4</octave>
				</pitch>
				<duration>4</duration>
				<voice>1</voice>
				<type>quarter</type>
				<stem>up</stem>
				<staff>1</staff>
				<notations>
					<slur type="stop" number="1"/>
				</notations>
			</note>
			<note>
				<pitch>
					<step>C</step>
					<octave>4</octave>
				</pitch>
				<duration>3</duration>
				<voice>1</voice>
				<type>eighth</type>
				<dot/>
				<stem>up</stem>
				<staff>1</staff>
				<beam number="1">begin</beam>
				<notations>
					<slur type="start" number="1"/>
				</notations>
			</note>
			<note>
				<pitch>
					<step>D</step>
					<octave>4</octave>
				</pitch>
				<duration>1</duration>
				<voice>1</voice>
				<type>16th</type>
				<stem>up</stem>
				<staff>1</staff>
				<beam number="1">end</beam>
				<beam number="2">backward hook</beam>
				<notations>
					<slur type="continue" number="1"/>
				</notations>
			</note>
			<backup>
				<duration>12</duration>
			</backup>
			<note>
				<pitch>
					<step>F</step>
					<octave>3</octave>
				</pitch>
				<duration>12</duration>
				<voice>2</voice>
				<type>half</type>
				<dot/>
				<stem>down</stem>
				<staff>2</staff>
				<notations>
					<technical>
						<fingering>13</fingering>
					</technical>
					<slur type="continue" number="1"/>
				</notations>
			</note>
			<note>
				<chord/>
				<pitch>
					<step>A</step>
					<alter>-1</alter>
					<octave>3</octave>
				</pitch>
				<duration>12</duration>
				<voice>2</voice>
				<type>half</type>
				<dot/>
				<stem>down</stem>
				<staff>2</staff>
			</note>
		</measure>
		<measure number="4">
			<attributes>
				<divisions>2</divisions>
				<staves>2</staves>
			</attributes>
			<harmony>
				<root>
					<root-step>C</root-step>
				</root>
				<kind parentheses-degrees="no">minor</kind>
			</harmony>
			<note>
				<pitch>
					<step>E</step>
					<alter>-1</alter>
					<octave>4</octave>
				</pitch>
				<duration>6</duration>
				<voice>1</voice>
				<type>half</type>
				<dot/>
				<stem>up</stem>
				<staff>1</staff>
				<notations>
					<slur type="continue" number="1"/>
				</notations>
			</note>
			<backup>
				<duration>6</duration>
			</backup>
			<note>
				<rest/>
				<duration>1</duration>
				<voice>2</voice>
				<type>eighth</type>
				<staff>2</staff>
			</note>
			<note>
				<pitch>
					<step>G</step>
					<octave>3</octave>
				</pitch>
				<duration>1</duration>
				<voice>2</voice>
				<type>eighth</type>
				<stem>up</stem>
				<staff>2</staff>
				<notations>
					<slur type="continue" number="1"/>
				</notations>
			</note>
			<note>
				<pitch>
					<step>C</step>
					<octave>4</octave>
				</pitch>
				<duration>2</duration>
				<voice>2</voice>
				<type>quarter</type>
				<stem>up</stem>
				<staff>2</staff>
				<notations>
					<slur type="continue" number="1"/>
				</notations>
			</note>
			<note>
				<pitch>
					<step>G</step>
					<octave>3</octave>
				</pitch>
				<duration>2</duration>
				<voice>2</voice>
				<type>quarter</type>
				<stem>up</stem>
				<staff>2</staff>
				<notations>
					<slur type="continue" number="1"/>
				</notations>
			</note>
			<backup>
				<duration>6</duration>
			</backup>
			<note>
				<pitch>
					<step>C</step>
					<octave>3</octave>
				</pitch>
				<duration>6</duration>
				<voice>3</voice>
				<type>half</type>
				<dot/>
				<stem>down</stem>
				<staff>2</staff>
				<notations>
					<slur type="continue" number="1"/>
				</notations>
			</note>
		</measure>
		<measure number="5">
			<attributes>
				<divisions>4</divisions>
				<staves>2</staves>
			</attributes>
			<harmony>
				<root>
					<root-step>E</root-step>
				</root>
				<kind parentheses-degrees="no">minor</kind>
			</harmony>
			<note>
				<pitch>
					<step>B</step>
					<alter>-1</alter>
					<octave>4</octave>
				</pitch>
				<duration>3</duration>
				<voice>1</voice>
				<type>eighth</type>
				<dot/>
				<stem>up</stem>
				<staff>1</staff>
				<beam number="1">begin</beam>
				<notations>
					<slur type="continue" number="1"/>
				</notations>
			</note>
			<note>
				<pitch>
					<step>A</step>
					<alter>-1</alter>
					<octave>4</octave>
				</pitch>
				<duration>1</duration>
				<voice>1</voice>
				<type>16th</type>
				<stem>up</stem>
				<staff>1</staff>
				<beam number="1">end</beam>
				<beam number="2">backward hook</beam>
				<notations>
					<slur type="continue" number="1"/>
				</notations>
			</note>
			<note>
				<pitch>
					<step>D</step>
					<octave>4</octave>
				</pitch>
				<duration>4</duration>
				<voice>1</voice>
				<type>quarter</type>
				<stem>up</stem>
				<staff>1</staff>
				<notations>
					<slur type="stop" number="1"/>
				</notations>
			</note>
			<note>
				<pitch>
					<step>D</step>
					<octave>4</octave>
				</pitch>
				<duration>3</duration>
				<voice>1</voice>
				<type>eighth</type>
				<dot/>
				<stem>up</stem>
				<staff>1</staff>
				<beam number="1">begin</beam>
				<notations>
					<technical>
						<fingering>1</fingering>
					</technical>
					<slur type="start" number="1"/>
				</notations>
			</note>
			<note>
				<pitch>
					<step>E</step>
					<alter>-1</alter>
					<octave>4</octave>
				</pitch>
				<duration>1</duration>
				<voice>1</voice>
				<type>16th</type>
				<stem>up</stem>
				<staff>1</staff>
				<beam number="1">end</beam>
				<beam number="2">backward hook</beam>
				<notations>
					<slur type="continue" number="1"/>
				</notations>
			</note>
			<backup>
				<duration>12</duration>
			</backup>
			<note>
				<pitch>
					<step>F</step>
					<octave>3</octave>
				</pitch>
				<duration>12</duration>
				<voice>2</voice>
				<type>half</type>
				<dot/>
				<stem>down</stem>
				<staff>2</staff>
				<notations>
					<slur type="continue" number="1"/>
				</notations>
			</note>
			<note>
				<chord/>
				<pitch>
					<step>A</step>
					<alter>-1</alter>
					<octave>3</octave>
				</pitch>
				<duration>12</duration>
				<voice>2</voice>
				<type>half</type>
				<dot/>
				<stem>down</stem>
				<staff>2</staff>
			</note>
		</measure>
		<measure number="6">
			<print new-system="yes"/>
			<attributes>
				<divisions>4</divisions>
				<staves>2</staves>
			</attributes>
			<harmony>
				<root>
					<root-step>B</root-step>
				</root>
				<kind parentheses-degrees="no">diminished</kind>
			</harmony>
			<note>
				<pitch>
					<step>F</step>
					<octave>4</octave>
				</pitch>
				<duration>8</duration>
				<voice>1</voice>
				<type>half</type>
				<stem>up</stem>
				<staff>1</staff>
				<notations>
					<slur type="stop" number="1"/>
				</notations>
			</note>
			<note>
				<pitch>
					<step>A</step>
					<alter>-1</alter>
					<octave>4</octave>
				</pitch>
				<duration>3</duration>
				<voice>1</voice>
				<type>eighth</type>
				<dot/>
				<stem>up</stem>
				<staff>1</staff>
				<beam number="1">begin</beam>
				<notations>
					<slur type="start" number="1"/>
				</notations>
			</note>
			<note>
				<pitch>
					<step>G</step>
					<octave>4</octave>
				</pitch>
				<duration>1</duration>
				<voice>1</voice>
				<type>16th</type>
				<stem>up</stem>
				<staff>1</staff>
				<beam number="1">end</beam>
				<beam number="2">backward hook</beam>
				<notations>
					<slur type="continue" number="1"/>
				</notations>
			</note>
			<backup>
				<duration>12</duration>
			</backup>
			<note>
				<rest/>
				<duration>2</duration>
				<voice>2</voice>
				<type>eighth</type>
				<staff>2</staff>
			</note>
			<note>
				<pitch>
					<step>D</step>
					<octave>3</octave>
				</pitch>
				<duration>2</duration>
				<voice>2</voice>
				<type>eighth</type>
				<stem>up</stem>
				<staff>2</staff>
				<notations>
					<slur type="continue" number="1"/>
				</notations>
			</note>
			<note>
				<pitch>
					<step>A</step>
					<alter>-1</alter>
					<octave>3</octave>
				</pitch>
				<duration>4</duration>
				<voice>2</voice>
				<type>quarter</type>
				<stem>up</stem>
				<staff>2</staff>
				<notations>
					<slur type="continue" number="1"/>
				</notations>
			</note>
			<note>
				<pitch>
					<step>D</step>
					<octave>3</octave>
				</pitch>
				<duration>4</duration>
				<voice>2</voice>
				<type>quarter</type>
				<stem>up</stem>
				<staff>2</staff>
				<notations>
					<slur type="continue" number="1"/>
				</notations>
			</note>
			<backup>
				<duration>12</duration>
			</backup>
			<note>
				<pitch>
					<step>B</step>
					<octave>2</octave>
				</pitch>
				<duration>12</duration>
				<voice>3</voice>
				<type>half</type>
				<dot/>
				<accidental>natural</accidental>
				<stem>down</stem>
				<staff>2</staff>
				<notations>
					<slur type="continue" number="1"/>
				</notations>
			</note>
		</measure>
		<measure number="7">
			<attributes>
				<divisions>4</divisions>
				<staves>2</staves>
			</attributes>
			<harmony>
				<root>
					<root-step>C</root-step>
				</root>
				<kind parentheses-degrees="no">minor</kind>
			</harmony>
			<note>
				<pitch>
					<step>E</step>
					<alter>-1</alter>
					<octave>4</octave>
				</pitch>
				<duration>8</duration>
				<voice>1</voice>
				<type>half</type>
				<stem>up</stem>
				<staff>1</staff>
				<notations>
					<slur type="stop" number="1"/>
				</notations>
			</note>
			<note>
				<pitch>
					<step>G</step>
					<octave>4</octave>
				</pitch>
				<duration>3</duration>
				<voice>1</voice>
				<type>eighth</type>
				<dot/>
				<stem>up</stem>
				<staff>1</staff>
				<beam number="1">begin</beam>
				<notations>
					<technical>
						<fingering>5</fingering>
					</technical>
					<slur type="start" number="1"/>
				</notations>
			</note>
			<note>
				<pitch>
					<step>F</step>
					<octave>4</octave>
				</pitch>
				<duration>1</duration>
				<voice>1</voice>
				<type>16th</type>
				<stem>up</stem>
				<staff>1</staff>
				<beam number="1">end</beam>
				<beam number="2">backward hook</beam>
				<notations>
					<slur type="continue" number="1"/>
				</notations>
			</note>
			<backup>
				<duration>12</duration>
			</backup>
			<note>
				<rest/>
				<duration>2</duration>
				<voice>2</voice>
				<type>eighth</type>
				<staff>2</staff>
			</note>
			<note>
				<pitch>
					<step>G</step>
					<octave>3</octave>
				</pitch>
				<duration>2</duration>
				<voice>2</voice>
				<type>eighth</type>
				<stem>up</stem>
				<staff>2</staff>
				<notations>
					<slur type="continue" number="1"/>
				</notations>
			</note>
			<note>
				<pitch>
					<step>C</step>
					<octave>4</octave>
				</pitch>
				<duration>4</duration>
				<voice>2</voice>
				<type>quarter</type>
				<stem>up</stem>
				<staff>2</staff>
				<notations>
					<slur type="continue" number="1"/>
				</notations>
			</note>
			<note>
				<pitch>
					<step>G</step>
					<octave>3</octave>
				</pitch>
				<duration>4</duration>
				<voice>2</voice>
				<type>quarter</type>
				<stem>up</stem>
				<staff>2</staff>
				<notations>
					<slur type="continue" number="1"/>
				</notations>
			</note>
			<backup>
				<duration>12</duration>
			</backup>
			<note>
				<pitch>
					<step>C</step>
					<octave>3</octave>
				</pitch>
				<duration>12</duration>
				<voice>3</voice>
				<type>half</type>
				<dot/>
				<stem>down</stem>
				<staff>2</staff>
				<notations>
					<slur type="continue" number="1"/>
				</notations>
			</note>
		</measure>
		<measure number="8">
			<attributes>
				<divisions>4</divisions>
				<staves>2</staves>
			</attributes>
			<harmony>
				<root>
					<root-step>A</root-step>
				</root>
				<kind parentheses-degrees="no">half-diminished</kind>
			</harmony>
			<note>
				<pitch>
					<step>C</step>
					<octave>4</octave>
				</pitch>
				<duration>6</duration>
				<voice>1</voice>
				<type>quarter</type>
				<dot/>
				<stem>up</stem>
				<staff>1</staff>
				<notations>
					<technical>
						<fingering>2</fingering>
					</technical>
					<slur type="continue" number="1"/>
				</notations>
			</note>
			<note>
				<pitch>
					<step>D</step>
					<octave>4</octave>
				</pitch>
				<duration>1</duration>
				<voice>1</voice>
				<type>16th</type>
				<stem>up</stem>
				<staff>1</staff>
				<beam number="1">begin</beam>
				<beam number="2">begin</beam>
				<notations>
					<slur type="continue" number="1"/>
				</notations>
			</note>
			<note>
				<pitch>
					<step>C</step>
					<octave>4</octave>
				</pitch>
				<duration>1</duration>
				<voice>1</voice>
				<type>16th</type>
				<stem>up</stem>
				<staff>1</staff>
				<beam number="1">end</beam>
				<beam number="2">end</beam>
				<notations>
					<slur type="continue" number="1"/>
				</notations>
			</note>
			<note>
				<pitch>
					<step>B</step>
					<octave>3</octave>
				</pitch>
				<duration>2</duration>
				<voice>1</voice>
				<type>eighth</type>
				<accidental>natural</accidental>
				<stem>up</stem>
				<staff>1</staff>
				<beam number="1">begin</beam>
				<notations>
					<slur type="continue" number="1"/>
				</notations>
			</note>
			<note>
				<pitch>
					<step>C</step>
					<octave>4</octave>
				</pitch>
				<duration>2</duration>
				<voice>1</voice>
				<type>eighth</type>
				<stem>up</stem>
				<staff>1</staff>
				<beam number="1">end</beam>
				<notations>
					<slur type="continue" number="1"/>
				</notations>
			</note>
			<backup>
				<duration>12</duration>
			</backup>
			<note>
				<pitch>
					<step>A</step>
					<alter>-1</alter>
					<octave>3</octave>
				</pitch>
				<duration>8</duration>
				<voice>2</voice>
				<type>half</type>
				<stem>down</stem>
				<staff>2</staff>
				<notations>
					<technical>
						<fingering>2</fingering>
					</technical>
					<slur type="continue" number="1"/>
				</notations>
			</note>
			<note>
				<pitch>
					<step>A</step>
					<alter>-1</alter>
					<octave>3</octave>
				</pitch>
				<duration>4</duration>
				<voice>2</voice>
				<type>quarter</type>
				<stem>down</stem>
				<staff>2</staff>
				<notations>
					<slur type="continue" number="1"/>
				</notations>
			</note>
		</measure>
		<measure number="9">
			<attributes>
				<divisions>1</divisions>
				<staves>2</staves>
			</attributes>
			<harmony>
				<root>
					<root-step>G</root-step>
				</root>
				<kind parentheses-degrees="no">major</kind>
			</harmony>
			<note>
				<pitch>
					<step>D</step>
					<octave>4</octave>
				</pitch>
				<duration>1</duration>
				<voice>1</voice>
				<type>quarter</type>
				<stem>up</stem>
				<staff>1</staff>
				<notations>
					<slur type="stop" number="1"/>
				</notations>
			</note>
			<harmony>
				<root>
					<root-step>C</root-step>
				</root>
				<kind parentheses-degrees="no">minor</kind>
			</harmony>
			<note>
				<pitch>
					<step>E</step>
					<alter>-1</alter>
					<octave>4</octave>
				</pitch>
				<duration>1</duration>
				<voice>1</voice>
				<type>quarter</type>
				<stem>up</stem>
				<staff>1</staff>
				<notations>
					<technical>
						<fingering>4</fingering>
					</technical>
					<slur type="start" number="1"/>
				</notations>
			</note>
			<harmony>
				<root>
					<root-step>C</root-step>
				</root>
				<kind parentheses-degrees="no">dominant</kind>
			</harmony>
			<note>
				<pitch>
					<step>E</step>
					<octave>4</octave>
				</pitch>
				<duration>1</duration>
				<voice>1</voice>
				<type>quarter</type>
				<accidental>natural</accidental>
				<stem>up</stem>
				<staff>1</staff>
				<notations>
					<technical>
						<fingering>1</fingering>
					</technical>
					<slur type="continue" number="1"/>
				</notations>
			</note>
			<backup>
				<duration>3</duration>
			</backup>
			<note>
				<pitch>
					<step>G</step>
					<octave>3</octave>
				</pitch>
				<duration>1</duration>
				<voice>2</voice>
				<type>quarter</type>
				<stem>down</stem>
				<staff>2</staff>
				<notations>
					<slur type="continue" number="1"/>
				</notations>
			</note>
			<note>
				<chord/>
				<pitch>
					<step>B</step>
					<octave>3</octave>
				</pitch>
				<duration>1</duration>
				<voice>2</voice>
				<type>quarter</type>
				<accidental>natural</accidental>
				<stem>down</stem>
				<staff>2</staff>
			</note>
			<note>
				<pitch>
					<step>C</step>
					<octave>3</octave>
				</pitch>
				<duration>1</duration>
				<voice>2</voice>
				<type>quarter</type>
				<stem>down</stem>
				<staff>2</staff>
				<notations>
					<slur type="continue" number="1"/>
				</notations>
			</note>
			<note>
				<chord/>
				<pitch>
					<step>C</step>
					<octave>4</octave>
				</pitch>
				<duration>1</duration>
				<voice>2</voice>
				<type>quarter</type>
				<stem>down</stem>
				<staff>2</staff>
			</note>
			<note>
				<pitch>
					<step>B</step>
					<alter>-1</alter>
					<octave>3</octave>
				</pitch>
				<duration>1</duration>
				<voice>2</voice>
				<type>quarter</type>
				<accidental>flat</accidental>
				<stem>down</stem>
				<staff>2</staff>
				<notations>
					<slur type="continue" number="1"/>
				</notations>
			</note>
		</measure>
		<measure number="10">
			<attributes>
				<divisions>2</divisions>
				<staves>2</staves>
			</attributes>
			<harmony>
				<root>
					<root-step>F</root-step>
				</root>
				<kind parentheses-degrees="no">minor</kind>
			</harmony>
			<note>
				<pitch>
					<step>F</step>
					<octave>4</octave>
				</pitch>
				<duration>2</duration>
				<voice>1</voice>
				<type>quarter</type>
				<stem>up</stem>
				<staff>1</staff>
				<notations>
					<slur type="continue" number="1"/>
				</notations>
			</note>
			<note>
				<pitch>
					<step>B</step>
					<alter>-1</alter>
					<octave>4</octave>
				</pitch>
				<duration>3</duration>
				<voice>1</voice>
				<type>quarter</type>
				<dot/>
				<stem>up</stem>
				<staff>1</staff>
				<notations>
					<slur type="continue" number="1"/>
				</notations>
			</note>
			<note>
				<pitch>
					<step>A</step>
					<alter>-1</alter>
					<octave>4</octave>
				</pitch>
				<duration>1</duration>
				<voice>1</voice>
				<type>eighth</type>
				<stem>up</stem>
				<staff>1</staff>
				<notations>
					<slur type="continue" number="1"/>
				</notations>
			</note>
			<backup>
				<duration>6</duration>
			</backup>
			<note>
				<pitch>
					<step>A</step>
					<alter>-1</alter>
					<octave>3</octave>
				</pitch>
				<duration>2</duration>
				<voice>2</voice>
				<type>quarter</type>
				<stem>down</stem>
				<staff>2</staff>
				<notations>
					<slur type="continue" number="1"/>
				</notations>
			</note>
			<note>
				<pitch>
					<step>F</step>
					<octave>3</octave>
				</pitch>
				<duration>4</duration>
				<voice>2</voice>
				<type>half</type>
				<stem>down</stem>
				<staff>2</staff>
				<notations>
					<slur type="continue" number="1"/>
				</notations>
			</note>
			<note>
				<chord/>
				<pitch>
					<step>A</step>
					<alter>-1</alter>
					<octave>3</octave>
				</pitch>
				<duration>4</duration>
				<voice>2</voice>
				<type>half</type>
				<stem>down</stem>
				<staff>2</staff>
			</note>
		</measure>
		<measure number="11">
			<print new-system="yes"/>
			<attributes>
				<divisions>2</divisions>
				<staves>2</staves>
			</attributes>
			<harmony>
				<root>
					<root-step>B</root-step>
					<root-alter>-1</root-alter>
				</root>
				<kind parentheses-degrees="no">major</kind>
			</harmony>
			<note>
				<pitch>
					<step>D</step>
					<octave>4</octave>
				</pitch>
				<duration>2</duration>
				<voice>1</voice>
				<type>quarter</type>
				<stem>up</stem>
				<staff>1</staff>
				<notations>
					<slur type="stop" number="1"/>
				</notations>
			</note>
			<harmony>
				<root>
					<root-step>E</root-step>
					<root-alter>-1</root-alter>
				</root>
				<kind parentheses-degrees="no">major</kind>
			</harmony>
			<note>
				<pitch>
					<step>G</step>
					<octave>4</octave>
				</pitch>
				<duration>3</duration>
				<voice>1</voice>
				<type>quarter</type>
				<dot/>
				<stem>up</stem>
				<staff>1</staff>
				<notations>
					<technical>
						<fingering>5</fingering>
					</technical>
					<slur type="start" number="1"/>
				</notations>
			</note>
			<note>
				<pitch>
					<step>F</step>
					<octave>4</octave>
				</pitch>
				<duration>1</duration>
				<voice>1</voice>
				<type>eighth</type>
				<stem>up</stem>
				<staff>1</staff>
				<notations>
					<slur type="continue" number="1"/>
				</notations>
			</note>
			<backup>
				<duration>6</duration>
			</backup>
			<note>
				<pitch>
					<step>B</step>
					<alter>-1</alter>
					<octave>3</octave>
				</pitch>
				<duration>2</duration>
				<voice>2</voice>
				<type>quarter</type>
				<stem>down</stem>
				<staff>2</staff>
				<notations>
					<slur type="continue" number="1"/>
				</notations>
			</note>
			<note>
				<pitch>
					<step>E</step>
					<alter>-1</alter>
					<octave>3</octave>
				</pitch>
				<duration>4</duration>
				<voice>2</voice>
				<type>half</type>
				<stem>down</stem>
				<staff>2</staff>
				<notations>
					<slur type="continue" number="1"/>
				</notations>
			</note>
			<note>
				<chord/>
				<pitch>
					<step>B</step>
					<alter>-1</alter>
					<octave>3</octave>
				</pitch>
				<duration>4</duration>
				<voice>2</voice>
				<type>half</type>
				<stem>down</stem>
				<staff>2</staff>
			</note>
		</measure>
		<measure number="12">
			<attributes>
				<divisions>1</divisions>
				<staves>2</staves>
			</attributes>
			<harmony>
				<root>
					<root-step>A</root-step>
					<root-alter>-1</root-alter>
				</root>
				<kind parentheses-degrees="no">major</kind>
			</harmony>
			<note>
				<pitch>
					<step>C</step>
					<octave>4</octave>
				</pitch>
				<duration>1</duration>
				<voice>1</voice>
				<type>quarter</type>
				<stem>up</stem>
				<staff>1</staff>
				<notations>
					<slur type="continue" number="1"/>
				</notations>
			</note>
			<harmony>
				<root>
					<root-step>C</root-step>
				</root>
				<kind parentheses-degrees="no">minor</kind>
			</harmony>
			<note>
				<pitch>
					<step>E</step>
					<alter>-1</alter>
					<octave>4</octave>
				</pitch>
				<duration>1</duration>
				<voice>1</voice>
				<type>quarter</type>
				<stem>up</stem>
				<staff>1</staff>
				<notations>
					<slur type="continue" number="1"/>
				</notations>
			</note>
			<harmony>
				<root>
					<root-step>D</root-step>
				</root>
				<kind parentheses-degrees="no">major</kind>
			</harmony>
			<note>
				<pitch>
					<step>D</step>
					<octave>4</octave>
				</pitch>
				<duration>1</duration>
				<voice>1</voice>
				<type>quarter</type>
				<stem>up</stem>
				<staff>1</staff>
				<notations>
					<slur type="continue" number="1"/>
				</notations>
			</note>
			<backup>
				<duration>3</duration>
			</backup>
			<note>
				<pitch>
					<step>A</step>
					<alter>-1</alter>
					<octave>3</octave>
				</pitch>
				<duration>1</duration>
				<voice>2</voice>
				<type>quarter</type>
				<stem>down</stem>
				<staff>2</staff>
				<notations>
					<slur type="continue" number="1"/>
				</notations>
			</note>
			<note>
				<pitch>
					<step>G</step>
					<octave>3</octave>
				</pitch>
				<duration>1</duration>
				<voice>2</voice>
				<type>quarter</type>
				<stem>down</stem>
				<staff>2</staff>
				<notations>
					<slur type="continue" number="1"/>
				</notations>
			</note>
			<note>
				<pitch>
					<step>F</step>
					<alter>1</alter>
					<octave>3</octave>
				</pitch>
				<duration>1</duration>
				<voice>2</voice>
				<type>quarter</type>
				<accidental>sharp</accidental>
				<stem>down</stem>
				<staff>2</staff>
				<notations>
					<slur type="continue" number="1"/>
				</notations>
			</note>
		</measure>
		<measure number="13">
			<barline location="left">
				<ending number="1" type="start">1</ending>
			</barline>
			<attributes>
				<divisions>4</divisions>
				<staves>2</staves>
			</attributes>
			<harmony>
				<root>
					<root-step>G</root-step>
				</root>
				<kind parentheses-degrees="no">dominant</kind>
				<offset sound="yes">0</offset>
			</harmony>
			<harmony>
				<root>
					<root-step>C</root-step>
				</root>
				<kind parentheses-degrees="no">minor</kind>
				<offset sound="yes">1</offset>
			</harmony>
			<note>
				<pitch>
					<step>G</step>
					<octave>4</octave>
				</pitch>
				<duration>8</duration>
				<voice>1</voice>
				<type>half</type>
				<stem>up</stem>
				<staff>1</staff>
				<notations>
					<slur type="stop" number="1"/>
				</notations>
			</note>
			<harmony>
				<root>
					<root-step>F</root-step>
				</root>
				<kind parentheses-degrees="no">minor-sixth</kind>
			</harmony>
			<note>
				<pitch>
					<step>C</step>
					<octave>4</octave>
				</pitch>
				<duration>3</duration>
				<voice>1</voice>
				<type>eighth</type>
				<dot/>
				<stem>up</stem>
				<staff>1</staff>
				<beam number="1">begin</beam>
				<notations>
					<technical>
						<fingering>1</fingering>
					</technical>
				</notations>
			</note>
			<note>
				<pitch>
					<step>D</step>
					<octave>4</octave>
				</pitch>
				<duration>1</duration>
				<voice>1</voice>
				<type>16th</type>
				<stem>up</stem>
				<staff>1</staff>
				<beam number="1">end</beam>
				<beam number="2">backward hook</beam>
			</note>
			<backup>
				<duration>12</duration>
			</backup>
			<note>
				<pitch>
					<step>F</step>
					<octave>3</octave>
				</pitch>
				<duration>4</duration>
				<voice>2</voice>
				<type>quarter</type>
				<accidental>natural</accidental>
				<stem>down</stem>
				<staff>2</staff>
			</note>
			<note>
				<chord/>
				<pitch>
					<step>B</step>
					<octave>3</octave>
				</pitch>
				<duration>4</duration>
				<voice>2</voice>
				<type>quarter</type>
				<accidental>natural</accidental>
				<stem>down</stem>
				<staff>2</staff>
			</note>
			<note>
				<pitch>
					<step>E</step>
					<alter>-1</alter>
					<octave>3</octave>
				</pitch>
				<duration>4</duration>
				<voice>2</voice>
				<type>quarter</type>
				<stem>down</stem>
				<staff>2</staff>
			</note>
			<note>
				<chord/>
				<pitch>
					<step>C</step>
					<octave>4</octave>
				</pitch>
				<duration>4</duration>
				<voice>2</voice>
				<type>quarter</type>
				<stem>down</stem>
				<staff>2</staff>
			</note>
			<note>
				<pitch>
					<step>D</step>
					<octave>3</octave>
				</pitch>
				<duration>4</duration>
				<voice>2</voice>
				<type>quarter</type>
				<stem>down</stem>
				<staff>2</staff>
			</note>
			<barline location="right">
				<bar-style>light-heavy</bar-style>
				<ending number="1" type="discontinue">1</ending>
				<repeat direction="backward" times="2"/>
			</barline>
		</measure>
		<measure number="14">
			<barline location="left">
				<ending number="2" type="start">2</ending>
			</barline>
			<attributes>
				<divisions>1</divisions>
				<staves>2</staves>
			</attributes>
			<harmony>
				<root>
					<root-step>A</root-step>
					<root-alter>-1</root-alter>
				</root>
				<kind parentheses-degrees="no">major</kind>
			</harmony>
			<note>
				<pitch>
					<step>C</step>
					<octave>4</octave>
				</pitch>
				<duration>1</duration>
				<voice>1</voice>
				<type>quarter</type>
				<stem>up</stem>
				<staff>1</staff>
			</note>
			<harmony>
				<root>
					<root-step>C</root-step>
				</root>
				<kind parentheses-degrees="no">minor</kind>
			</harmony>
			<note>
				<pitch>
					<step>E</step>
					<alter>-1</alter>
					<octave>4</octave>
				</pitch>
				<duration>1</duration>
				<voice>1</voice>
				<type>quarter</type>
				<stem>up</stem>
				<staff>1</staff>
			</note>
			<harmony>
				<root>
					<root-step>G</root-step>
				</root>
				<kind parentheses-degrees="no">dominant</kind>
			</harmony>
			<note>
				<pitch>
					<step>D</step>
					<octave>4</octave>
				</pitch>
				<duration>1</duration>
				<voice>1</voice>
				<type>quarter</type>
				<stem>up</stem>
				<staff>1</staff>
			</note>
			<backup>
				<duration>3</duration>
			</backup>
			<note>
				<pitch>
					<step>A</step>
					<alter>-1</alter>
					<octave>3</octave>
				</pitch>
				<duration>1</duration>
				<voice>2</voice>
				<type>quarter</type>
				<stem>down</stem>
				<staff>2</staff>
			</note>
			<note>
				<pitch>
					<step>G</step>
					<octave>3</octave>
				</pitch>
				<duration>1</duration>
				<voice>2</voice>
				<type>quarter</type>
				<stem>down</stem>
				<staff>2</staff>
			</note>
			<note>
				<pitch>
					<step>G</step>
					<octave>2</octave>
				</pitch>
				<duration>1</duration>
				<voice>2</voice>
				<type>quarter</type>
				<stem>up</stem>
				<staff>2</staff>
			</note>
			<note>
				<chord/>
				<pitch>
					<step>F</step>
					<octave>3</octave>
				</pitch>
				<duration>1</duration>
				<voice>2</voice>
				<type>quarter</type>
				<accidental>natural</accidental>
				<stem>up</stem>
				<staff>2</staff>
			</note>
			<barline location="right">
				<ending number="2" type="discontinue">2</ending>
			</barline>
		</measure>
		<measure number="15">
			<attributes>
				<divisions>1</divisions>
				<staves>2</staves>
			</attributes>
			<harmony>
				<root>
					<root-step>C</root-step>
				</root>
				<kind parentheses-degrees="no">major</kind>
			</harmony>
			<note>
				<pitch>
					<step>C</step>
					<octave>4</octave>
				</pitch>
				<duration>2</duration>
				<voice>1</voice>
				<type>half</type>
				<stem>up</stem>
				<staff>1</staff>
			</note>
			<note>
				<pitch>
					<step>G</step>
					<octave>4</octave>
				</pitch>
				<duration>1</duration>
				<tie type="start"/>
				<voice>1</voice>
				<type>quarter</type>
				<stem>up</stem>
				<staff>1</staff>
				<notations>
					<technical>
						<fingering>4</fingering>
					</technical>
					<tied type="start"/>
				</notations>
			</note>
			<backup>
				<duration>3</duration>
			</backup>
			<note>
				<pitch>
					<step>C</step>
					<octave>3</octave>
				</pitch>
				<duration>2</duration>
				<voice>2</voice>
				<type>half</type>
				<stem>down</stem>
				<staff>2</staff>
			</note>
			<note>
				<chord/>
				<pitch>
					<step>E</step>
					<octave>3</octave>
				</pitch>
				<duration>2</duration>
				<voice>2</voice>
				<type>half</type>
				<accidental>natural</accidental>
				<stem>down</stem>
				<staff>2</staff>
			</note>
			<note>
				<rest/>
				<duration>1</duration>
				<voice>2</voice>
				<type>quarter</type>
				<staff>2</staff>
			</note>
			<barline location="right">
				<bar-style>light-light</bar-style>
			</barline>
		</measure>
		<measure number="16">
			<print new-system="yes"/>
			<attributes>
				<divisions>2</divisions>
				<key>
					<fifths>0</fifths>
				</key>
				<staves>2</staves>
			</attributes>
			<harmony>
				<root>
					<root-step>F</root-step>
				</root>
				<kind parentheses-degrees="no">minor</kind>
			</harmony>
			<note>
				<pitch>
					<step>G</step>
					<octave>4</octave>
				</pitch>
				<duration>1</duration>
				<tie type="stop"/>
				<voice>1</voice>
				<type>eighth</type>
				<stem>up</stem>
				<staff>1</staff>
				<beam number="1">begin</beam>
				<notations>
					<tied type="stop"/>
				</notations>
			</note>
			<note>
				<pitch>
					<step>A</step>
					<alter>-1</alter>
					<octave>4</octave>
				</pitch>
				<duration>1</duration>
				<voice>1</voice>
				<type>eighth</type>
				<accidental>flat</accidental>
				<stem>up</stem>
				<staff>1</staff>
				<beam number="1">continue</beam>
			</note>
			<note>
				<pitch>
					<step>F</step>
					<octave>4</octave>
				</pitch>
				<duration>1</duration>
				<voice>1</voice>
				<type>eighth</type>
				<stem>up</stem>
				<staff>1</staff>
				<beam number="1">continue</beam>
			</note>
			<note>
				<pitch>
					<step>E</step>
					<octave>4</octave>
				</pitch>
				<duration>1</duration>
				<voice>1</voice>
				<type>eighth</type>
				<stem>up</stem>
				<staff>1</staff>
				<beam number="1">end</beam>
			</note>
			<note>
				<pitch>
					<step>D</step>
					<octave>4</octave>
				</pitch>
				<duration>2</duration>
				<voice>1</voice>
				<type>quarter</type>
				<stem>up</stem>
				<staff>1</staff>
			</note>
			<backup>
				<duration>6</duration>
			</backup>
			<note>
				<pitch>
					<step>C</step>
					<octave>3</octave>
				</pitch>
				<duration>6</duration>
				<voice>2</voice>
				<type>half</type>
				<dot/>
				<stem>down</stem>
				<staff>2</staff>
			</note>
			<note>
				<chord/>
				<pitch>
					<step>A</step>
					<alter>-1</alter>
					<octave>3</octave>
				</pitch>
				<duration>6</duration>
				<voice>2</voice>
				<type>half</type>
				<dot/>
				<accidental>flat</accidental>
				<stem>down</stem>
				<staff>2</staff>
			</note>
		</measure>
		<measure number="17">
			<attributes>
				<divisions>1</divisions>
				<staves>2</staves>
			</attributes>
			<harmony>
				<root>
					<root-step>C</root-step>
				</root>
				<kind parentheses-degrees="no">major</kind>
			</harmony>
			<note>
				<pitch>
					<step>F</step>
					<octave>4</octave>
				</pitch>
				<duration>1</duration>
				<voice>1</voice>
				<type>quarter</type>
				<stem>up</stem>
				<staff>1</staff>
			</note>
			<note>
				<pitch>
					<step>E</step>
					<octave>4</octave>
				</pitch>
				<duration>1</duration>
				<voice>1</voice>
				<type>quarter</type>
				<stem>up</stem>
				<staff>1</staff>
			</note>
			<note>
				<pitch>
					<step>G</step>
					<octave>4</octave>
				</pitch>
				<duration>1</duration>
				<tie type="start"/>
				<voice>1</voice>
				<type>quarter</type>
				<stem>up</stem>
				<staff>1</staff>
				<notations>
					<slur type="start" number="1"/>
					<tied type="start"/>
				</notations>
			</note>
			<backup>
				<duration>3</duration>
			</backup>
			<note>
				<pitch>
					<step>C</step>
					<octave>3</octave>
				</pitch>
				<duration>3</duration>
				<voice>2</voice>
				<type>half</type>
				<dot/>
				<stem>down</stem>
				<staff>2</staff>
				<notations>
					<slur type="continue" number="1"/>
				</notations>
			</note>
			<note>
				<chord/>
				<pitch>
					<step>G</step>
					<octave>3</octave>
				</pitch>
				<duration>3</duration>
				<voice>2</voice>
				<type>half</type>
				<dot/>
				<stem>down</stem>
				<staff>2</staff>
			</note>
		</measure>
		<measure number="18">
			<attributes>
				<divisions>2</divisions>
				<staves>2</staves>
			</attributes>
			<harmony>
				<root>
					<root-step>F</root-step>
				</root>
				<kind parentheses-degrees="no">minor</kind>
			</harmony>
			<note>
				<pitch>
					<step>G</step>
					<octave>4</octave>
				</pitch>
				<duration>1</duration>
				<tie type="stop"/>
				<voice>1</voice>
				<type>eighth</type>
				<stem>up</stem>
				<staff>1</staff>
				<beam number="1">begin</beam>
				<notations>
					<slur type="continue" number="1"/>
					<tied type="stop"/>
				</notations>
			</note>
			<note>
				<pitch>
					<step>A</step>
					<alter>-1</alter>
					<octave>4</octave>
				</pitch>
				<duration>1</duration>
				<voice>1</voice>
				<type>eighth</type>
				<accidental>flat</accidental>
				<stem>up</stem>
				<staff>1</staff>
				<beam number="1">continue</beam>
				<notations>
					<slur type="continue" number="1"/>
				</notations>
			</note>
			<note>
				<pitch>
					<step>F</step>
					<octave>4</octave>
				</pitch>
				<duration>1</duration>
				<voice>1</voice>
				<type>eighth</type>
				<stem>up</stem>
				<staff>1</staff>
				<beam number="1">continue</beam>
				<notations>
					<slur type="continue" number="1"/>
				</notations>
			</note>
			<note>
				<pitch>
					<step>E</step>
					<octave>4</octave>
				</pitch>
				<duration>1</duration>
				<voice>1</voice>
				<type>eighth</type>
				<stem>up</stem>
				<staff>1</staff>
				<beam number="1">end</beam>
				<notations>
					<slur type="continue" number="1"/>
				</notations>
			</note>
			<note>
				<pitch>
					<step>D</step>
					<octave>4</octave>
				</pitch>
				<duration>2</duration>
				<voice>1</voice>
				<type>quarter</type>
				<stem>up</stem>
				<staff>1</staff>
				<notations>
					<slur type="continue" number="1"/>
				</notations>
			</note>
			<backup>
				<duration>6</duration>
			</backup>
			<note>
				<pitch>
					<step>C</step>
					<octave>3</octave>
				</pitch>
				<duration>6</duration>
				<voice>2</voice>
				<type>half</type>
				<dot/>
				<stem>down</stem>
				<staff>2</staff>
				<notations>
					<slur type="continue" number="1"/>
				</notations>
			</note>
			<note>
				<chord/>
				<pitch>
					<step>A</step>
					<alter>-1</alter>
					<octave>3</octave>
				</pitch>
				<duration>6</duration>
				<voice>2</voice>
				<type>half</type>
				<dot/>
				<accidental>flat</accidental>
				<stem>down</stem>
				<staff>2</staff>
			</note>
		</measure>
		<measure number="19">
			<attributes>
				<divisions>1</divisions>
				<staves>2</staves>
			</attributes>
			<harmony>
				<root>
					<root-step>C</root-step>
				</root>
				<kind parentheses-degrees="no">major</kind>
			</harmony>
			<note>
				<pitch>
					<step>F</step>
					<octave>4</octave>
				</pitch>
				<duration>1</duration>
				<voice>1</voice>
				<type>quarter</type>
				<stem>up</stem>
				<staff>1</staff>
				<notations>
					<slur type="continue" number="1"/>
				</notations>
			</note>
			<note>
				<pitch>
					<step>E</step>
					<octave>4</octave>
				</pitch>
				<duration>1</duration>
				<voice>1</voice>
				<type>quarter</type>
				<stem>up</stem>
				<staff>1</staff>
				<notations>
					<slur type="stop" number="1"/>
				</notations>
			</note>
			<note>
				<pitch>
					<step>G</step>
					<octave>5</octave>
				</pitch>
				<duration>1</duration>
				<voice>1</voice>
				<type>quarter</type>
				<stem>down</stem>
				<staff>1</staff>
				<notations>
					<technical>
						<fingering>4</fingering>
					</technical>
				</notations>
			</note>
			<backup>
				<duration>3</duration>
			</backup>
			<note>
				<pitch>
					<step>C</step>
					<octave>3</octave>
				</pitch>
				<duration>2</duration>
				<voice>2</voice>
				<type>half</type>
				<stem>down</stem>
				<staff>2</staff>
			</note>
			<note>
				<chord/>
				<pitch>
					<step>G</step>
					<octave>3</octave>
				</pitch>
				<duration>2</duration>
				<voice>2</voice>
				<type>half</type>
				<stem>down</stem>
				<staff>2</staff>
			</note>
			<note>
				<pitch>
					<step>E</step>
					<octave>3</octave>
				</pitch>
				<duration>1</duration>
				<voice>2</voice>
				<type>quarter</type>
				<stem>down</stem>
				<staff>2</staff>
			</note>
			<note>
				<chord/>
				<pitch>
					<step>B</step>
					<octave>3</octave>
				</pitch>
				<duration>1</duration>
				<voice>2</voice>
				<type>quarter</type>
				<stem>down</stem>
				<staff>2</staff>
			</note>
			<note>
				<chord/>
				<pitch>
					<step>C</step>
					<octave>4</octave>
				</pitch>
				<duration>1</duration>
				<voice>2</voice>
				<type>quarter</type>
				<stem>down</stem>
				<staff>2</staff>
			</note>
		</measure>
		<measure number="20">
			<print new-system="yes" new-page="yes"/>
			<attributes>
				<divisions>2</divisions>
				<staves>2</staves>
			</attributes>
			<harmony>
				<root>
					<root-step>F</root-step>
				</root>
				<kind parentheses-degrees="no">major</kind>
			</harmony>
			<note>
				<pitch>
					<step>G</step>
					<octave>5</octave>
				</pitch>
				<duration>1</duration>
				<voice>1</voice>
				<type>eighth</type>
				<stem>down</stem>
				<staff>1</staff>
				<beam number="1">begin</beam>
			</note>
			<note>
				<pitch>
					<step>A</step>
					<octave>5</octave>
				</pitch>
				<duration>1</duration>
				<voice>1</voice>
				<type>eighth</type>
				<stem>down</stem>
				<staff>1</staff>
				<beam number="1">continue</beam>
			</note>
			<note>
				<pitch>
					<step>F</step>
					<octave>5</octave>
				</pitch>
				<duration>1</duration>
				<voice>1</voice>
				<type>eighth</type>
				<stem>down</stem>
				<staff>1</staff>
				<beam number="1">continue</beam>
			</note>
			<harmony>
				<root>
					<root-step>B</root-step>
				</root>
				<kind parentheses-degrees="yes">half-diminished</kind>
			</harmony>
			<note>
				<pitch>
					<step>E</step>
					<octave>5</octave>
				</pitch>
				<duration>1</duration>
				<voice>1</voice>
				<type>eighth</type>
				<stem>down</stem>
				<staff>1</staff>
				<beam number="1">end</beam>
			</note>
			<note>
				<pitch>
					<step>D</step>
					<octave>5</octave>
				</pitch>
				<duration>2</duration>
				<tie type="start"/>
				<voice>1</voice>
				<type>quarter</type>
				<stem>down</stem>
				<staff>1</staff>
				<notations>
					<tied type="start"/>
				</notations>
			</note>
			<backup>
				<duration>6</duration>
			</backup>
			<note>
				<pitch>
					<step>F</step>
					<octave>3</octave>
				</pitch>
				<duration>4</duration>
				<voice>2</voice>
				<type>half</type>
				<stem>down</stem>
				<staff>2</staff>
			</note>
			<note>
				<chord/>
				<pitch>
					<step>A</step>
					<octave>3</octave>
				</pitch>
				<duration>4</duration>
				<voice>2</voice>
				<type>half</type>
				<stem>down</stem>
				<staff>2</staff>
			</note>
			<note>
				<chord/>
				<pitch>
					<step>C</step>
					<octave>4</octave>
				</pitch>
				<duration>4</duration>
				<voice>2</voice>
				<type>half</type>
				<stem>down</stem>
				<staff>2</staff>
			</note>
			<note>
				<pitch>
					<step>B</step>
					<octave>2</octave>
				</pitch>
				<duration>2</duration>
				<voice>2</voice>
				<type>quarter</type>
				<stem>down</stem>
				<staff>2</staff>
			</note>
			<note>
				<chord/>
				<pitch>
					<step>F</step>
					<octave>3</octave>
				</pitch>
				<duration>2</duration>
				<voice>2</voice>
				<type>quarter</type>
				<stem>down</stem>
				<staff>2</staff>
			</note>
			<note>
				<chord/>
				<pitch>
					<step>A</step>
					<octave>3</octave>
				</pitch>
				<duration>2</duration>
				<voice>2</voice>
				<type>quarter</type>
				<stem>down</stem>
				<staff>2</staff>
			</note>
		</measure>
		<measure number="21">
			<attributes>
				<divisions>2</divisions>
				<staves>2</staves>
			</attributes>
			<harmony>
				<root>
					<root-step>E</root-step>
				</root>
				<kind parentheses-degrees="no">minor</kind>
			</harmony>
			<note>
				<pitch>
					<step>D</step>
					<octave>5</octave>
				</pitch>
				<duration>1</duration>
				<tie type="stop"/>
				<voice>1</voice>
				<type>eighth</type>
				<stem>down</stem>
				<staff>1</staff>
				<beam number="1">begin</beam>
				<notations>
					<tied type="stop"/>
				</notations>
			</note>
			<note>
				<pitch>
					<step>G</step>
					<octave>5</octave>
				</pitch>
				<duration>1</duration>
				<voice>1</voice>
				<type>eighth</type>
				<stem>down</stem>
				<staff>1</staff>
				<beam number="1">continue</beam>
				<notations>
					<technical>
						<fingering>5</fingering>
					</technical>
					<slur type="start" number="1"/>
				</notations>
			</note>
			<note>
				<pitch>
					<step>E</step>
					<octave>5</octave>
				</pitch>
				<duration>1</duration>
				<voice>1</voice>
				<type>eighth</type>
				<stem>down</stem>
				<staff>1</staff>
				<beam number="1">continue</beam>
				<notations>
					<slur type="continue" number="1"/>
				</notations>
			</note>
			<note>
				<pitch>
					<step>D</step>
					<octave>5</octave>
				</pitch>
				<duration>1</duration>
				<voice>1</voice>
				<type>eighth</type>
				<stem>down</stem>
				<staff>1</staff>
				<beam number="1">end</beam>
				<notations>
					<slur type="continue" number="1"/>
				</notations>
			</note>
			<harmony>
				<root>
					<root-step>A</root-step>
				</root>
				<kind parentheses-degrees="no">minor-seventh</kind>
			</harmony>
			<note>
				<pitch>
					<step>C</step>
					<octave>5</octave>
				</pitch>
				<duration>2</duration>
				<tie type="start"/>
				<voice>1</voice>
				<type>quarter</type>
				<stem>down</stem>
				<staff>1</staff>
				<notations>
					<slur type="continue" number="1"/>
					<tied type="start"/>
				</notations>
			</note>
			<backup>
				<duration>6</duration>
			</backup>
			<note>
				<pitch>
					<step>E</step>
					<octave>3</octave>
				</pitch>
				<duration>4</duration>
				<voice>2</voice>
				<type>half</type>
				<stem>down</stem>
				<staff>2</staff>
				<notations>
					<slur type="continue" number="1"/>
				</notations>
			</note>
			<note>
				<chord/>
				<pitch>
					<step>G</step>
					<octave>3</octave>
				</pitch>
				<duration>4</duration>
				<voice>2</voice>
				<type>half</type>
				<stem>down</stem>
				<staff>2</staff>
			</note>
			<note>
				<pitch>
					<step>A</step>
					<octave>2</octave>
				</pitch>
				<duration>2</duration>
				<voice>2</voice>
				<type>quarter</type>
				<stem>down</stem>
				<staff>2</staff>
				<notations>
					<slur type="continue" number="1"/>
				</notations>
			</note>
			<note>
				<chord/>
				<pitch>
					<step>G</step>
					<octave>3</octave>
				</pitch>
				<duration>2</duration>
				<voice>2</voice>
				<type>quarter</type>
				<stem>down</stem>
				<staff>2</staff>
			</note>
		</measure>
		<measure number="22">
			<attributes>
				<divisions>2</divisions>
				<staves>2</staves>
			</attributes>
			<harmony>
				<root>
					<root-step>D</root-step>
				</root>
				<kind parentheses-degrees="no">minor-seventh</kind>
			</harmony>
			<note>
				<pitch>
					<step>C</step>
					<octave>5</octave>
				</pitch>
				<duration>1</duration>
				<tie type="stop"/>
				<voice>1</voice>
				<type>eighth</type>
				<stem>down</stem>
				<staff>1</staff>
				<beam number="1">begin</beam>
				<notations>
					<slur type="stop" number="1"/>
					<tied type="stop"/>
				</notations>
			</note>
			<note>
				<pitch>
					<step>F</step>
					<octave>5</octave>
				</pitch>
				<duration>1</duration>
				<voice>1</voice>
				<type>eighth</type>
				<stem>down</stem>
				<staff>1</staff>
				<beam number="1">continue</beam>
				<notations>
					<technical>
						<fingering>5</fingering>
					</technical>
					<slur type="start" number="1"/>
					<slur type="start" number="2"/>
				</notations>
			</note>
			<note>
				<pitch>
					<step>D</step>
					<octave>5</octave>
				</pitch>
				<duration>1</duration>
				<voice>1</voice>
				<type>eighth</type>
				<stem>down</stem>
				<staff>1</staff>
				<beam number="1">continue</beam>
				<notations>
					<slur type="continue" number="1"/>
					<slur type="continue" number="2"/>
				</notations>
			</note>
			<note>
				<pitch>
					<step>C</step>
					<octave>5</octave>
				</pitch>
				<duration>1</duration>
				<voice>1</voice>
				<type>eighth</type>
				<stem>down</stem>
				<staff>1</staff>
				<beam number="1">end</beam>
				<notations>
					<slur type="continue" number="1"/>
					<slur type="continue" number="2"/>
				</notations>
			</note>
			<harmony>
				<root>
					<root-step>D</root-step>
				</root>
				<kind parentheses-degrees="no">minor-sixth</kind>
			</harmony>
			<note>
				<pitch>
					<step>B</step>
					<octave>4</octave>
				</pitch>
				<duration>2</duration>
				<tie type="start"/>
				<voice>1</voice>
				<type>quarter</type>
				<stem>down</stem>
				<staff>1</staff>
				<notations>
					<slur type="continue" number="1"/>
					<slur type="continue" number="2"/>
					<tied type="start"/>
				</notations>
			</note>
			<backup>
				<duration>6</duration>
			</backup>
			<note>
				<pitch>
					<step>D</step>
					<octave>3</octave>
				</pitch>
				<duration>4</duration>
				<voice>2</voice>
				<type>half</type>
				<stem>down</stem>
				<staff>2</staff>
				<notations>
					<slur type="continue" number="1"/>
					<slur type="continue" number="2"/>
				</notations>
			</note>
			<note>
				<chord/>
				<pitch>
					<step>F</step>
					<octave>3</octave>
				</pitch>
				<duration>4</duration>
				<voice>2</voice>
				<type>half</type>
				<stem>down</stem>
				<staff>2</staff>
			</note>
			<note>
				<pitch>
					<step>F</step>
					<octave>3</octave>
				</pitch>
				<duration>2</duration>
				<voice>2</voice>
				<type>quarter</type>
				<stem>down</stem>
				<staff>2</staff>
				<notations>
					<slur type="continue" number="1"/>
					<slur type="continue" number="2"/>
				</notations>
			</note>
			<note>
				<chord/>
				<pitch>
					<step>A</step>
					<octave>3</octave>
				</pitch>
				<duration>2</duration>
				<voice>2</voice>
				<type>quarter</type>
				<stem>down</stem>
				<staff>2</staff>
			</note>
		</measure>
		<measure number="23">
			<attributes>
				<divisions>2</divisions>
				<staves>2</staves>
			</attributes>
			<harmony>
				<root>
					<root-step>E</root-step>
				</root>
				<kind parentheses-degrees="no">major</kind>
			</harmony>
			<note>
				<pitch>
					<step>B</step>
					<octave>4</octave>
				</pitch>
				<duration>1</duration>
				<tie type="stop"/>
				<voice>1</voice>
				<type>eighth</type>
				<stem>down</stem>
				<staff>1</staff>
				<beam number="1">begin</beam>
				<notations>
					<slur type="stop" number="1"/>
					<slur type="stop" number="2"/>
					<tied type="stop"/>
				</notations>
			</note>
			<note>
				<pitch>
					<step>C</step>
					<octave>5</octave>
				</pitch>
				<duration>1</duration>
				<voice>1</voice>
				<type>eighth</type>
				<stem>down</stem>
				<staff>1</staff>
				<beam number="1">continue</beam>
				<notations>
					<technical>
						<fingering>3</fingering>
					</technical>
				</notations>
			</note>
			<note>
				<pitch>
					<step>B</step>
					<octave>4</octave>
				</pitch>
				<duration>1</duration>
				<voice>1</voice>
				<type>eighth</type>
				<stem>down</stem>
				<staff>1</staff>
				<beam number="1">continue</beam>
			</note>
			<note>
				<pitch>
					<step>C</step>
					<octave>5</octave>
				</pitch>
				<duration>1</duration>
				<voice>1</voice>
				<type>eighth</type>
				<stem>down</stem>
				<staff>1</staff>
				<beam number="1">end</beam>
			</note>
			<note>
				<pitch>
					<step>B</step>
					<octave>4</octave>
				</pitch>
				<duration>2</duration>
				<tie type="start"/>
				<voice>1</voice>
				<type>quarter</type>
				<stem>down</stem>
				<staff>1</staff>
				<notations>
					<tied type="start"/>
				</notations>
			</note>
			<backup>
				<duration>6</duration>
			</backup>
			<note>
				<pitch>
					<step>E</step>
					<octave>3</octave>
				</pitch>
				<duration>6</duration>
				<voice>2</voice>
				<type>half</type>
				<dot/>
				<stem>down</stem>
				<staff>2</staff>
			</note>
			<note>
				<chord/>
				<pitch>
					<step>G</step>
					<alter>1</alter>
					<octave>3</octave>
				</pitch>
				<duration>6</duration>
				<voice>2</voice>
				<type>half</type>
				<dot/>
				<accidental>sharp</accidental>
				<stem>down</stem>
				<staff>2</staff>
			</note>
		</measure>
		<measure number="24">
			<attributes>
				<divisions>2</divisions>
				<staves>2</staves>
			</attributes>
			<note>
				<pitch>
					<step>B</step>
					<octave>4</octave>
				</pitch>
				<duration>1</duration>
				<tie type="stop"/>
				<voice>1</voice>
				<type>eighth</type>
				<stem>up</stem>
				<staff>1</staff>
				<beam number="1">begin</beam>
				<notations>
					<tied type="stop"/>
				</notations>
			</note>
			<note>
				<pitch>
					<step>A</step>
					<octave>4</octave>
				</pitch>
				<duration>1</duration>
				<voice>1</voice>
				<type>eighth</type>
				<stem>up</stem>
				<staff>1</staff>
				<beam number="1">continue</beam>
				<notations>
					<technical>
						<fingering>1</fingering>
					</technical>
				</notations>
			</note>
			<note>
				<pitch>
					<step>G</step>
					<alter>1</alter>
					<octave>4</octave>
				</pitch>
				<duration>1</duration>
				<voice>1</voice>
				<type>eighth</type>
				<accidental>sharp</accidental>
				<stem>up</stem>
				<staff>1</staff>
				<beam number="1">continue</beam>
				<notations>
					<technical>
						<fingering>2</fingering>
					</technical>
				</notations>
			</note>
			<note>
				<pitch>
					<step>A</step>
					<octave>4</octave>
				</pitch>
				<duration>1</duration>
				<voice>1</voice>
				<type>eighth</type>
				<stem>up</stem>
				<staff>1</staff>
				<beam number="1">end</beam>
				<notations>
					<technical>
						<fingering>1</fingering>
					</technical>
				</notations>
			</note>
			<note>
				<pitch>
					<step>B</step>
					<octave>4</octave>
				</pitch>
				<duration>2</duration>
				<tie type="start"/>
				<voice>1</voice>
				<type>quarter</type>
				<stem>down</stem>
				<staff>1</staff>
				<notations>
					<tied type="start"/>
				</notations>
			</note>
			<backup>
				<duration>6</duration>
			</backup>
			<note>
				<pitch>
					<step>E</step>
					<octave>3</octave>
				</pitch>
				<duration>6</duration>
				<voice>2</voice>
				<type>half</type>
				<dot/>
				<stem>down</stem>
				<staff>2</staff>
			</note>
		</measure>
		<measure number="25">
			<print new-system="yes"/>
			<attributes>
				<divisions>2</divisions>
				<staves>2</staves>
			</attributes>
			<note>
				<pitch>
					<step>B</step>
					<octave>4</octave>
				</pitch>
				<duration>1</duration>
				<tie type="stop"/>
				<voice>1</voice>
				<type>eighth</type>
				<stem>down</stem>
				<staff>1</staff>
				<beam number="1">begin</beam>
				<notations>
					<tied type="stop"/>
				</notations>
			</note>
			<note>
				<pitch>
					<step>C</step>
					<octave>5</octave>
				</pitch>
				<duration>1</duration>
				<voice>1</voice>
				<type>eighth</type>
				<stem>down</stem>
				<staff>1</staff>
				<beam number="1">continue</beam>
				<notations>
					<slur type="start" number="1"/>
				</notations>
			</note>
			<note>
				<pitch>
					<step>B</step>
					<octave>4</octave>
				</pitch>
				<duration>1</duration>
				<voice>1</voice>
				<type>eighth</type>
				<stem>down</stem>
				<staff>1</staff>
				<beam number="1">continue</beam>
				<notations>
					<slur type="continue" number="1"/>
				</notations>
			</note>
			<note>
				<pitch>
					<step>E</step>
					<octave>5</octave>
				</pitch>
				<duration>1</duration>
				<voice>1</voice>
				<type>eighth</type>
				<stem>down</stem>
				<staff>1</staff>
				<beam number="1">end</beam>
				<notations>
					<slur type="continue" number="1"/>
				</notations>
			</note>
			<direction placement="above">
				<direction-type>
					<words>Am</words>
				</direction-type>
				<voice>1</voice>
				<staff>1</staff>
			</direction>
			<note>
				<pitch>
					<step>C</step>
					<octave>5</octave>
				</pitch>
				<duration>2</duration>
				<tie type="start"/>
				<voice>1</voice>
				<type>quarter</type>
				<stem>down</stem>
				<staff>1</staff>
				<notations>
					<slur type="continue" number="1"/>
					<tied type="start"/>
				</notations>
			</note>
			<backup>
				<duration>6</duration>
			</backup>
			<note>
				<pitch>
					<step>E</step>
					<octave>3</octave>
				</pitch>
				<duration>4</duration>
				<voice>2</voice>
				<type>half</type>
				<stem>down</stem>
				<staff>2</staff>
				<notations>
					<slur type="continue" number="1"/>
				</notations>
			</note>
			<note>
				<chord/>
				<pitch>
					<step>G</step>
					<alter>1</alter>
					<octave>3</octave>
				</pitch>
				<duration>4</duration>
				<voice>2</voice>
				<type>half</type>
				<accidental>sharp</accidental>
				<stem>down</stem>
				<staff>2</staff>
			</note>
			<note>
				<pitch>
					<step>A</step>
					<octave>3</octave>
				</pitch>
				<duration>2</duration>
				<voice>2</voice>
				<type>quarter</type>
				<stem>down</stem>
				<staff>2</staff>
				<notations>
					<slur type="continue" number="1"/>
				</notations>
			</note>
		</measure>
		<measure number="26">
			<attributes>
				<divisions>2</divisions>
				<staves>2</staves>
			</attributes>
			<note>
				<pitch>
					<step>C</step>
					<octave>5</octave>
				</pitch>
				<duration>1</duration>
				<tie type="stop"/>
				<voice>1</voice>
				<type>eighth</type>
				<stem>up</stem>
				<staff>1</staff>
				<beam number="1">begin</beam>
				<notations>
					<slur type="stop" number="1"/>
					<tied type="stop"/>
				</notations>
			</note>
			<note>
				<pitch>
					<step>A</step>
					<octave>4</octave>
				</pitch>
				<duration>1</duration>
				<voice>1</voice>
				<type>eighth</type>
				<stem>up</stem>
				<staff>1</staff>
				<beam number="1">continue</beam>
				<notations>
					<slur type="start" number="1"/>
				</notations>
			</note>
			<note>
				<pitch>
					<step>G</step>
					<alter>1</alter>
					<octave>4</octave>
				</pitch>
				<duration>1</duration>
				<voice>1</voice>
				<type>eighth</type>
				<accidental>sharp</accidental>
				<stem>up</stem>
				<staff>1</staff>
				<beam number="1">continue</beam>
				<notations>
					<slur type="continue" number="1"/>
				</notations>
			</note>
			<note>
				<pitch>
					<step>A</step>
					<octave>4</octave>
				</pitch>
				<duration>1</duration>
				<voice>1</voice>
				<type>eighth</type>
				<stem>up</stem>
				<staff>1</staff>
				<beam number="1">end</beam>
				<notations>
					<slur type="continue" number="1"/>
				</notations>
			</note>
			<note>
				<pitch>
					<step>B</step>
					<octave>4</octave>
				</pitch>
				<duration>2</duration>
				<tie type="start"/>
				<voice>1</voice>
				<type>quarter</type>
				<stem>down</stem>
				<staff>1</staff>
				<notations>
					<slur type="continue" number="1"/>
					<tied type="start"/>
				</notations>
			</note>
			<backup>
				<duration>6</duration>
			</backup>
			<note>
				<pitch>
					<step>E</step>
					<octave>3</octave>
				</pitch>
				<duration>6</duration>
				<voice>2</voice>
				<type>half</type>
				<dot/>
				<stem>down</stem>
				<staff>2</staff>
				<notations>
					<slur type="continue" number="1"/>
				</notations>
			</note>
		</measure>
		<measure number="27">
			<attributes>
				<divisions>2</divisions>
				<staves>2</staves>
			</attributes>
			<note>
				<pitch>
					<step>B</step>
					<octave>4</octave>
				</pitch>
				<duration>1</duration>
				<tie type="stop"/>
				<voice>1</voice>
				<type>eighth</type>
				<stem>down</stem>
				<staff>1</staff>
				<beam number="1">begin</beam>
				<notations>
					<slur type="stop" number="1"/>
					<tied type="stop"/>
				</notations>
			</note>
			<direction placement="above">
				<direction-type>
					<words>N.C.</words>
				</direction-type>
				<voice>1</voice>
				<staff>1</staff>
			</direction>
			<note>
				<pitch>
					<step>C</step>
					<octave>5</octave>
				</pitch>
				<duration>1</duration>
				<voice>1</voice>
				<type>eighth</type>
				<stem>down</stem>
				<staff>1</staff>
				<beam number="1">continue</beam>
				<notations>
					<technical>
						<fingering>2</fingering>
					</technical>
					<slur type="start" number="1"/>
				</notations>
			</note>
			<note>
				<pitch>
					<step>B</step>
					<octave>4</octave>
				</pitch>
				<duration>1</duration>
				<voice>1</voice>
				<type>eighth</type>
				<stem>down</stem>
				<staff>1</staff>
				<beam number="1">continue</beam>
				<notations>
					<slur type="continue" number="1"/>
				</notations>
			</note>
			<note>
				<pitch>
					<step>C</step>
					<octave>5</octave>
				</pitch>
				<duration>1</duration>
				<voice>1</voice>
				<type>eighth</type>
				<stem>down</stem>
				<staff>1</staff>
				<beam number="1">continue</beam>
				<notations>
					<slur type="continue" number="1"/>
				</notations>
			</note>
			<note>
				<pitch>
					<step>D</step>
					<octave>5</octave>
				</pitch>
				<duration>1</duration>
				<voice>1</voice>
				<type>eighth</type>
				<stem>down</stem>
				<staff>1</staff>
				<beam number="1">continue</beam>
				<notations>
					<slur type="continue" number="1"/>
				</notations>
			</note>
			<note>
				<pitch>
					<step>E</step>
					<octave>5</octave>
				</pitch>
				<duration>1</duration>
				<voice>1</voice>
				<type>eighth</type>
				<stem>down</stem>
				<staff>1</staff>
				<beam number="1">end</beam>
				<notations>
					<slur type="continue" number="1"/>
				</notations>
			</note>
			<backup>
				<duration>6</duration>
			</backup>
			<note>
				<pitch>
					<step>E</step>
					<octave>3</octave>
				</pitch>
				<duration>2</duration>
				<voice>2</voice>
				<type>quarter</type>
				<stem>down</stem>
				<staff>2</staff>
				<notations>
					<slur type="continue" number="1"/>
				</notations>
			</note>
			<note>
				<chord/>
				<pitch>
					<step>G</step>
					<alter>1</alter>
					<octave>3</octave>
				</pitch>
				<duration>2</duration>
				<voice>2</voice>
				<type>quarter</type>
				<accidental>sharp</accidental>
				<stem>down</stem>
				<staff>2</staff>
			</note>
			<note>
				<rest/>
				<duration>2</duration>
				<voice>2</voice>
				<type>quarter</type>
				<staff>2</staff>
			</note>
			<note>
				<rest/>
				<duration>2</duration>
				<voice>2</voice>
				<type>quarter</type>
				<staff>2</staff>
			</note>
		</measure>
		<measure number="28">
			<attributes>
				<divisions>4</divisions>
				<staves>2</staves>
			</attributes>
			<note>
				<pitch>
					<step>F</step>
					<octave>5</octave>
				</pitch>
				<duration>2</duration>
				<voice>1</voice>
				<type>eighth</type>
				<stem>down</stem>
				<staff>1</staff>
				<beam number="1">begin</beam>
				<notations>
					<slur type="continue" number="1"/>
				</notations>
			</note>
			<note>
				<pitch>
					<step>E</step>
					<octave>5</octave>
				</pitch>
				<duration>2</duration>
				<voice>1</voice>
				<type>eighth</type>
				<stem>down</stem>
				<staff>1</staff>
				<beam number="1">continue</beam>
				<notations>
					<slur type="continue" number="1"/>
				</notations>
			</note>
			<note>
				<pitch>
					<step>E</step>
					<alter>-1</alter>
					<octave>5</octave>
				</pitch>
				<duration>2</duration>
				<voice>1</voice>
				<type>eighth</type>
				<accidental>flat</accidental>
				<stem>down</stem>
				<staff>1</staff>
				<beam number="1">continue</beam>
				<notations>
					<slur type="continue" number="1"/>
				</notations>
			</note>
			<note>
				<pitch>
					<step>D</step>
					<octave>5</octave>
				</pitch>
				<duration>2</duration>
				<voice>1</voice>
				<type>eighth</type>
				<stem>down</stem>
				<staff>1</staff>
				<beam number="1">end</beam>
				<notations>
					<slur type="stop" number="1"/>
				</notations>
			</note>
			<note>
				<pitch>
					<step>C</step>
					<octave>5</octave>
				</pitch>
				<duration>3</duration>
				<voice>1</voice>
				<type>eighth</type>
				<dot/>
				<stem>down</stem>
				<staff>1</staff>
				<beam number="1">begin</beam>
				<notations>
					<technical>
						<fingering>1</fingering>
					</technical>
				</notations>
			</note>
			<note>
				<pitch>
					<step>D</step>
					<octave>5</octave>
				</pitch>
				<duration>1</duration>
				<voice>1</voice>
				<type>16th</type>
				<stem>down</stem>
				<staff>1</staff>
				<beam number="1">end</beam>
				<beam number="2">backward hook</beam>
			</note>
			<backup>
				<duration>12</duration>
			</backup>
			<note print-object="yes">
				<rest measure="yes"/>
				<duration>12</duration>
				<voice>2</voice>
				<staff>2</staff>
			</note>
			<barline location="right">
				<bar-style>light-light</bar-style>
			</barline>
		</measure>
		<measure number="29">
			<print new-system="yes"/>
			<attributes>
				<divisions>2</divisions>
				<key>
					<fifths>-3</fifths>
				</key>
				<staves>2</staves>
			</attributes>
			<harmony>
				<root>
					<root-step>C</root-step>
				</root>
				<kind parentheses-degrees="no">minor</kind>
			</harmony>
			<note>
				<pitch>
					<step>E</step>
					<alter>-1</alter>
					<octave>5</octave>
				</pitch>
				<duration>6</duration>
				<voice>1</voice>
				<type>half</type>
				<dot/>
				<stem>down</stem>
				<staff>1</staff>
			</note>
			<backup>
				<duration>6</duration>
			</backup>
			<note>
				<rest/>
				<duration>1</duration>
				<voice>2</voice>
				<type>eighth</type>
				<staff>2</staff>
			</note>
			<note>
				<pitch>
					<step>G</step>
					<octave>3</octave>
				</pitch>
				<duration>1</duration>
				<voice>2</voice>
				<type>eighth</type>
				<stem>up</stem>
				<staff>2</staff>
			</note>
			<note>
				<pitch>
					<step>C</step>
					<octave>4</octave>
				</pitch>
				<duration>2</duration>
				<voice>2</voice>
				<type>quarter</type>
				<stem>up</stem>
				<staff>2</staff>
			</note>
			<note>
				<pitch>
					<step>G</step>
					<octave>3</octave>
				</pitch>
				<duration>2</duration>
				<voice>2</voice>
				<type>quarter</type>
				<stem>up</stem>
				<staff>2</staff>
			</note>
			<backup>
				<duration>6</duration>
			</backup>
			<note>
				<pitch>
					<step>C</step>
					<octave>3</octave>
				</pitch>
				<duration>6</duration>
				<voice>3</voice>
				<type>half</type>
				<dot/>
				<stem>down</stem>
				<staff>2</staff>
			</note>
		</measure>
		<measure number="30">
			<attributes>
				<divisions>4</divisions>
				<staves>2</staves>
			</attributes>
			<harmony>
				<root>
					<root-step>F</root-step>
				</root>
				<kind parentheses-degrees="no">minor</kind>
			</harmony>
			<note>
				<pitch>
					<step>G</step>
					<octave>5</octave>
				</pitch>
				<duration>3</duration>
				<voice>1</voice>
				<type>eighth</type>
				<dot/>
				<stem>down</stem>
				<staff>1</staff>
				<beam number="1">begin</beam>
			</note>
			<note>
				<pitch>
					<step>F</step>
					<octave>5</octave>
				</pitch>
				<duration>1</duration>
				<voice>1</voice>
				<type>16th</type>
				<stem>down</stem>
				<staff>1</staff>
				<beam number="1">end</beam>
				<beam number="2">backward hook</beam>
			</note>
			<note>
				<pitch>
					<step>D</step>
					<octave>5</octave>
				</pitch>
				<duration>4</duration>
				<voice>1</voice>
				<type>quarter</type>
				<stem>down</stem>
				<staff>1</staff>
			</note>
			<note>
				<pitch>
					<step>C</step>
					<octave>5</octave>
				</pitch>
				<duration>3</duration>
				<voice>1</voice>
				<type>eighth</type>
				<dot/>
				<stem>down</stem>
				<staff>1</staff>
				<beam number="1">begin</beam>
				<notations>
					<slur type="start" number="1"/>
				</notations>
			</note>
			<note>
				<pitch>
					<step>D</step>
					<octave>5</octave>
				</pitch>
				<duration>1</duration>
				<voice>1</voice>
				<type>16th</type>
				<stem>down</stem>
				<staff>1</staff>
				<beam number="1">end</beam>
				<beam number="2">backward hook</beam>
				<notations>
					<slur type="continue" number="1"/>
				</notations>
			</note>
			<backup>
				<duration>12</duration>
			</backup>
			<note>
				<pitch>
					<step>F</step>
					<octave>3</octave>
				</pitch>
				<duration>12</duration>
				<voice>2</voice>
				<type>half</type>
				<dot/>
				<stem>down</stem>
				<staff>2</staff>
				<notations>
					<slur type="continue" number="1"/>
				</notations>
			</note>
			<note>
				<chord/>
				<pitch>
					<step>A</step>
					<alter>-1</alter>
					<octave>3</octave>
				</pitch>
				<duration>12</duration>
				<voice>2</voice>
				<type>half</type>
				<dot/>
				<stem>down</stem>
				<staff>2</staff>
			</note>
		</measure>
		<measure number="31">
			<attributes>
				<divisions>2</divisions>
				<staves>2</staves>
			</attributes>
			<harmony>
				<root>
					<root-step>C</root-step>
				</root>
				<kind parentheses-degrees="no">minor</kind>
			</harmony>
			<note>
				<pitch>
					<step>E</step>
					<alter>-1</alter>
					<octave>5</octave>
				</pitch>
				<duration>6</duration>
				<voice>1</voice>
				<type>half</type>
				<dot/>
				<stem>down</stem>
				<staff>1</staff>
				<notations>
					<slur type="continue" number="1"/>
				</notations>
			</note>
			<backup>
				<duration>6</duration>
			</backup>
			<note>
				<rest/>
				<duration>1</duration>
				<voice>2</voice>
				<type>eighth</type>
				<staff>2</staff>
			</note>
			<note>
				<pitch>
					<step>G</step>
					<octave>3</octave>
				</pitch>
				<duration>1</duration>
				<voice>2</voice>
				<type>eighth</type>
				<stem>up</stem>
				<staff>2</staff>
				<notations>
					<slur type="continue" number="1"/>
				</notations>
			</note>
			<note>
				<pitch>
					<step>C</step>
					<octave>4</octave>
				</pitch>
				<duration>2</duration>
				<voice>2</voice>
				<type>quarter</type>
				<stem>up</stem>
				<staff>2</staff>
				<notations>
					<slur type="continue" number="1"/>
				</notations>
			</note>
			<note>
				<pitch>
					<step>G</step>
					<octave>3</octave>
				</pitch>
				<duration>2</duration>
				<voice>2</voice>
				<type>quarter</type>
				<stem>up</stem>
				<staff>2</staff>
				<notations>
					<slur type="continue" number="1"/>
				</notations>
			</note>
			<backup>
				<duration>6</duration>
			</backup>
			<note>
				<pitch>
					<step>C</step>
					<octave>3</octave>
				</pitch>
				<duration>6</duration>
				<voice>3</voice>
				<type>half</type>
				<dot/>
				<stem>down</stem>
				<staff>2</staff>
				<notations>
					<slur type="continue" number="1"/>
				</notations>
			</note>
		</measure>
		<measure number="32">
			<attributes>
				<divisions>4</divisions>
				<staves>2</staves>
			</attributes>
			<harmony>
				<root>
					<root-step>F</root-step>
				</root>
				<kind parentheses-degrees="no">minor</kind>
			</harmony>
			<note>
				<pitch>
					<step>B</step>
					<alter>-1</alter>
					<octave>5</octave>
				</pitch>
				<duration>3</duration>
				<voice>1</voice>
				<type>eighth</type>
				<dot/>
				<stem>down</stem>
				<staff>1</staff>
				<beam number="1">begin</beam>
				<notations>
					<slur type="continue" number="1"/>
				</notations>
			</note>
			<note>
				<pitch>
					<step>A</step>
					<alter>-1</alter>
					<octave>5</octave>
				</pitch>
				<duration>1</duration>
				<voice>1</voice>
				<type>16th</type>
				<stem>down</stem>
				<staff>1</staff>
				<beam number="1">end</beam>
				<beam number="2">backward hook</beam>
				<notations>
					<slur type="continue" number="1"/>
				</notations>
			</note>
			<note>
				<pitch>
					<step>D</step>
					<octave>5</octave>
				</pitch>
				<duration>4</duration>
				<voice>1</voice>
				<type>quarter</type>
				<stem>down</stem>
				<staff>1</staff>
				<notations>
					<slur type="stop" number="1"/>
				</notations>
			</note>
			<note>
				<pitch>
					<step>D</step>
					<octave>5</octave>
				</pitch>
				<duration>3</duration>
				<voice>1</voice>
				<type>eighth</type>
				<dot/>
				<stem>down</stem>
				<staff>1</staff>
				<beam number="1">begin</beam>
				<notations>
					<slur type="start" number="1"/>
				</notations>
			</note>
			<note>
				<pitch>
					<step>E</step>
					<alter>-1</alter>
					<octave>5</octave>
				</pitch>
				<duration>1</duration>
				<voice>1</voice>
				<type>16th</type>
				<stem>down</stem>
				<staff>1</staff>
				<beam number="1">end</beam>
				<beam number="2">backward hook</beam>
				<notations>
					<slur type="continue" number="1"/>
				</notations>
			</note>
			<backup>
				<duration>12</duration>
			</backup>
			<note>
				<pitch>
					<step>F</step>
					<octave>3</octave>
				</pitch>
				<duration>12</duration>
				<voice>2</voice>
				<type>half</type>
				<dot/>
				<stem>down</stem>
				<staff>2</staff>
				<notations>
					<slur type="continue" number="1"/>
				</notations>
			</note>
			<note>
				<chord/>
				<pitch>
					<step>A</step>
					<alter>-1</alter>
					<octave>3</octave>
				</pitch>
				<duration>12</duration>
				<voice>2</voice>
				<type>half</type>
				<dot/>
				<stem>down</stem>
				<staff>2</staff>
			</note>
		</measure>
		<measure number="33">
			<print new-system="yes"/>
			<attributes>
				<divisions>4</divisions>
				<staves>2</staves>
			</attributes>
			<harmony>
				<root>
					<root-step>B</root-step>
				</root>
				<kind parentheses-degrees="no">diminished</kind>
			</harmony>
			<note>
				<pitch>
					<step>F</step>
					<octave>5</octave>
				</pitch>
				<duration>8</duration>
				<voice>1</voice>
				<type>half</type>
				<stem>down</stem>
				<staff>1</staff>
				<notations>
					<slur type="stop" number="1"/>
				</notations>
			</note>
			<note>
				<pitch>
					<step>A</step>
					<alter>-1</alter>
					<octave>5</octave>
				</pitch>
				<duration>3</duration>
				<voice>1</voice>
				<type>eighth</type>
				<dot/>
				<stem>down</stem>
				<staff>1</staff>
				<beam number="1">begin</beam>
				<notations>
					<slur type="start" number="1"/>
				</notations>
			</note>
			<note>
				<pitch>
					<step>G</step>
					<octave>5</octave>
				</pitch>
				<duration>1</duration>
				<voice>1</voice>
				<type>16th</type>
				<stem>down</stem>
				<staff>1</staff>
				<beam number="1">end</beam>
				<beam number="2">backward hook</beam>
				<notations>
					<slur type="continue" number="1"/>
				</notations>
			</note>
			<backup>
				<duration>12</duration>
			</backup>
			<note>
				<rest/>
				<duration>2</duration>
				<voice>2</voice>
				<type>eighth</type>
				<staff>2</staff>
			</note>
			<note>
				<pitch>
					<step>D</step>
					<octave>3</octave>
				</pitch>
				<duration>2</duration>
				<voice>2</voice>
				<type>eighth</type>
				<stem>up</stem>
				<staff>2</staff>
				<notations>
					<slur type="continue" number="1"/>
				</notations>
			</note>
			<note>
				<pitch>
					<step>A</step>
					<alter>-1</alter>
					<octave>3</octave>
				</pitch>
				<duration>4</duration>
				<voice>2</voice>
				<type>quarter</type>
				<stem>up</stem>
				<staff>2</staff>
				<notations>
					<slur type="continue" number="1"/>
				</notations>
			</note>
			<note>
				<pitch>
					<step>D</step>
					<octave>3</octave>
				</pitch>
				<duration>4</duration>
				<voice>2</voice>
				<type>quarter</type>
				<stem>up</stem>
				<staff>2</staff>
				<notations>
					<slur type="continue" number="1"/>
				</notations>
			</note>
			<backup>
				<duration>12</duration>
			</backup>
			<note>
				<pitch>
					<step>B</step>
					<octave>2</octave>
				</pitch>
				<duration>12</duration>
				<voice>3</voice>
				<type>half</type>
				<dot/>
				<accidental>natural</accidental>
				<stem>down</stem>
				<staff>2</staff>
				<notations>
					<slur type="continue" number="1"/>
				</notations>
			</note>
		</measure>
		<measure number="34">
			<attributes>
				<divisions>4</divisions>
				<staves>2</staves>
			</attributes>
			<harmony>
				<root>
					<root-step>C</root-step>
				</root>
				<kind parentheses-degrees="no">minor</kind>
			</harmony>
			<note>
				<pitch>
					<step>E</step>
					<alter>-1</alter>
					<octave>5</octave>
				</pitch>
				<duration>8</duration>
				<voice>1</voice>
				<type>half</type>
				<stem>down</stem>
				<staff>1</staff>
				<notations>
					<slur type="stop" number="1"/>
				</notations>
			</note>
			<note>
				<pitch>
					<step>G</step>
					<octave>5</octave>
				</pitch>
				<duration>3</duration>
				<voice>1</voice>
				<type>eighth</type>
				<dot/>
				<stem>down</stem>
				<staff>1</staff>
				<beam number="1">begin</beam>
				<notations>
					<slur type="start" number="1"/>
				</notations>
			</note>
			<note>
				<pitch>
					<step>F</step>
					<octave>5</octave>
				</pitch>
				<duration>1</duration>
				<voice>1</voice>
				<type>16th</type>
				<stem>down</stem>
				<staff>1</staff>
				<beam number="1">end</beam>
				<beam number="2">backward hook</beam>
				<notations>
					<slur type="continue" number="1"/>
				</notations>
			</note>
			<backup>
				<duration>12</duration>
			</backup>
			<note>
				<rest/>
				<duration>2</duration>
				<voice>2</voice>
				<type>eighth</type>
				<staff>2</staff>
			</note>
			<note>
				<pitch>
					<step>G</step>
					<octave>3</octave>
				</pitch>
				<duration>2</duration>
				<voice>2</voice>
				<type>eighth</type>
				<stem>up</stem>
				<staff>2</staff>
				<notations>
					<slur type="continue" number="1"/>
				</notations>
			</note>
			<note>
				<pitch>
					<step>C</step>
					<octave>4</octave>
				</pitch>
				<duration>4</duration>
				<voice>2</voice>
				<type>quarter</type>
				<stem>up</stem>
				<staff>2</staff>
				<notations>
					<slur type="continue" number="1"/>
				</notations>
			</note>
			<note>
				<pitch>
					<step>G</step>
					<octave>3</octave>
				</pitch>
				<duration>4</duration>
				<voice>2</voice>
				<type>quarter</type>
				<stem>up</stem>
				<staff>2</staff>
				<notations>
					<slur type="continue" number="1"/>
				</notations>
			</note>
			<backup>
				<duration>12</duration>
			</backup>
			<note>
				<pitch>
					<step>C</step>
					<octave>3</octave>
				</pitch>
				<duration>12</duration>
				<voice>3</voice>
				<type>half</type>
				<dot/>
				<stem>down</stem>
				<staff>2</staff>
				<notations>
					<slur type="continue" number="1"/>
				</notations>
			</note>
		</measure>
		<measure number="35">
			<attributes>
				<divisions>4</divisions>
				<staves>2</staves>
			</attributes>
			<harmony>
				<root>
					<root-step>A</root-step>
					<root-alter>-1</root-alter>
				</root>
				<kind parentheses-degrees="no">major</kind>
			</harmony>
			<note>
				<pitch>
					<step>C</step>
					<octave>5</octave>
				</pitch>
				<duration>6</duration>
				<voice>1</voice>
				<type>quarter</type>
				<dot/>
				<stem>down</stem>
				<staff>1</staff>
				<notations>
					<slur type="continue" number="1"/>
				</notations>
			</note>
			<note>
				<pitch>
					<step>D</step>
					<octave>5</octave>
				</pitch>
				<duration>1</duration>
				<voice>1</voice>
				<type>16th</type>
				<stem>down</stem>
				<staff>1</staff>
				<beam number="1">begin</beam>
				<beam number="2">begin</beam>
				<notations>
					<slur type="continue" number="1"/>
				</notations>
			</note>
			<note>
				<pitch>
					<step>C</step>
					<octave>5</octave>
				</pitch>
				<duration>1</duration>
				<voice>1</voice>
				<type>16th</type>
				<stem>down</stem>
				<staff>1</staff>
				<beam number="1">end</beam>
				<beam number="2">end</beam>
				<notations>
					<slur type="continue" number="1"/>
				</notations>
			</note>
			<note>
				<pitch>
					<step>B</step>
					<octave>4</octave>
				</pitch>
				<duration>2</duration>
				<voice>1</voice>
				<type>eighth</type>
				<accidental>natural</accidental>
				<stem>down</stem>
				<staff>1</staff>
				<beam number="1">begin</beam>
				<notations>
					<slur type="continue" number="1"/>
				</notations>
			</note>
			<note>
				<pitch>
					<step>C</step>
					<octave>5</octave>
				</pitch>
				<duration>2</duration>
				<voice>1</voice>
				<type>eighth</type>
				<stem>down</stem>
				<staff>1</staff>
				<beam number="1">end</beam>
				<notations>
					<slur type="continue" number="1"/>
				</notations>
			</note>
			<backup>
				<duration>12</duration>
			</backup>
			<note>
				<pitch>
					<step>A</step>
					<alter>-1</alter>
					<octave>3</octave>
				</pitch>
				<duration>8</duration>
				<voice>2</voice>
				<type>half</type>
				<stem>down</stem>
				<staff>2</staff>
				<notations>
					<slur type="continue" number="1"/>
				</notations>
			</note>
			<note>
				<pitch>
					<step>A</step>
					<alter>-1</alter>
					<octave>3</octave>
				</pitch>
				<duration>4</duration>
				<voice>2</voice>
				<type>quarter</type>
				<stem>down</stem>
				<staff>2</staff>
				<notations>
					<slur type="continue" number="1"/>
				</notations>
			</note>
		</measure>
		<measure number="36">
			<attributes>
				<divisions>1</divisions>
				<staves>2</staves>
			</attributes>
			<harmony>
				<root>
					<root-step>G</root-step>
				</root>
				<kind parentheses-degrees="no">major</kind>
			</harmony>
			<note>
				<pitch>
					<step>D</step>
					<octave>5</octave>
				</pitch>
				<duration>1</duration>
				<voice>1</voice>
				<type>quarter</type>
				<stem>down</stem>
				<staff>1</staff>
				<notations>
					<slur type="stop" number="1"/>
				</notations>
			</note>
			<harmony>
				<root>
					<root-step>C</root-step>
				</root>
				<kind parentheses-degrees="no">minor</kind>
			</harmony>
			<note>
				<pitch>
					<step>E</step>
					<alter>-1</alter>
					<octave>5</octave>
				</pitch>
				<duration>1</duration>
				<voice>1</voice>
				<type>quarter</type>
				<stem>down</stem>
				<notehead>square</notehead>
				<staff>1</staff>
				<notations>
					<slur type="start" number="1"/>
				</notations>
			</note>
			<harmony>
				<root>
					<root-step>C</root-step>
				</root>
				<kind parentheses-degrees="no">dominant</kind>
			</harmony>
			<note>
				<pitch>
					<step>E</step>
					<octave>5</octave>
				</pitch>
				<duration>1</duration>
				<voice>1</voice>
				<type>quarter</type>
				<accidental>natural</accidental>
				<stem>down</stem>
				<staff>1</staff>
				<notations>
					<slur type="continue" number="1"/>
				</notations>
			</note>
			<backup>
				<duration>3</duration>
			</backup>
			<note>
				<pitch>
					<step>G</step>
					<octave>3</octave>
				</pitch>
				<duration>1</duration>
				<voice>2</voice>
				<type>quarter</type>
				<stem>down</stem>
				<staff>2</staff>
				<notations>
					<slur type="continue" number="1"/>
				</notations>
			</note>
			<note>
				<chord/>
				<pitch>
					<step>B</step>
					<octave>3</octave>
				</pitch>
				<duration>1</duration>
				<voice>2</voice>
				<type>quarter</type>
				<accidental>natural</accidental>
				<stem>down</stem>
				<staff>2</staff>
			</note>
			<note>
				<pitch>
					<step>C</step>
					<octave>3</octave>
				</pitch>
				<duration>1</duration>
				<voice>2</voice>
				<type>quarter</type>
				<stem>down</stem>
				<staff>2</staff>
				<notations>
					<slur type="continue" number="1"/>
				</notations>
			</note>
			<note>
				<chord/>
				<pitch>
					<step>C</step>
					<octave>4</octave>
				</pitch>
				<duration>1</duration>
				<voice>2</voice>
				<type>quarter</type>
				<stem>down</stem>
				<staff>2</staff>
			</note>
			<note>
				<pitch>
					<step>B</step>
					<alter>-1</alter>
					<octave>3</octave>
				</pitch>
				<duration>1</duration>
				<voice>2</voice>
				<type>quarter</type>
				<accidental>flat</accidental>
				<stem>down</stem>
				<staff>2</staff>
				<notations>
					<slur type="continue" number="1"/>
				</notations>
			</note>
		</measure>
		<measure number="37">
			<print new-system="yes"/>
			<attributes>
				<divisions>2</divisions>
				<staves>2</staves>
			</attributes>
			<harmony>
				<root>
					<root-step>F</root-step>
				</root>
				<kind parentheses-degrees="no">minor</kind>
			</harmony>
			<note>
				<pitch>
					<step>F</step>
					<octave>5</octave>
				</pitch>
				<duration>2</duration>
				<voice>1</voice>
				<type>quarter</type>
				<stem>down</stem>
				<staff>1</staff>
				<notations>
					<slur type="continue" number="1"/>
				</notations>
			</note>
			<note>
				<pitch>
					<step>B</step>
					<alter>-1</alter>
					<octave>5</octave>
				</pitch>
				<duration>3</duration>
				<voice>1</voice>
				<type>quarter</type>
				<dot/>
				<stem>down</stem>
				<staff>1</staff>
				<notations>
					<slur type="continue" number="1"/>
				</notations>
			</note>
			<note>
				<pitch>
					<step>A</step>
					<alter>-1</alter>
					<octave>5</octave>
				</pitch>
				<duration>1</duration>
				<voice>1</voice>
				<type>eighth</type>
				<stem>down</stem>
				<staff>1</staff>
				<notations>
					<slur type="continue" number="1"/>
				</notations>
			</note>
			<backup>
				<duration>6</duration>
			</backup>
			<note>
				<pitch>
					<step>A</step>
					<alter>-1</alter>
					<octave>3</octave>
				</pitch>
				<duration>2</duration>
				<voice>2</voice>
				<type>quarter</type>
				<stem>down</stem>
				<staff>2</staff>
				<notations>
					<slur type="continue" number="1"/>
				</notations>
			</note>
			<note>
				<pitch>
					<step>F</step>
					<octave>3</octave>
				</pitch>
				<duration>4</duration>
				<voice>2</voice>
				<type>half</type>
				<stem>down</stem>
				<staff>2</staff>
				<notations>
					<slur type="continue" number="1"/>
				</notations>
			</note>
			<note>
				<chord/>
				<pitch>
					<step>A</step>
					<alter>-1</alter>
					<octave>3</octave>
				</pitch>
				<duration>4</duration>
				<voice>2</voice>
				<type>half</type>
				<stem>down</stem>
				<staff>2</staff>
			</note>
		</measure>
		<measure number="38">
			<attributes>
				<divisions>2</divisions>
				<staves>2</staves>
			</attributes>
			<harmony>
				<root>
					<root-step>B</root-step>
					<root-alter>-1</root-alter>
				</root>
				<kind parentheses-degrees="no">major</kind>
			</harmony>
			<note>
				<pitch>
					<step>D</step>
					<octave>5</octave>
				</pitch>
				<duration>2</duration>
				<voice>1</voice>
				<type>quarter</type>
				<stem>down</stem>
				<staff>1</staff>
				<notations>
					<slur type="stop" number="1"/>
				</notations>
			</note>
			<harmony>
				<root>
					<root-step>E</root-step>
					<root-alter>-1</root-alter>
				</root>
				<kind parentheses-degrees="no">major</kind>
			</harmony>
			<note>
				<pitch>
					<step>G</step>
					<octave>5</octave>
				</pitch>
				<duration>3</duration>
				<voice>1</voice>
				<type>quarter</type>
				<dot/>
				<stem>down</stem>
				<staff>1</staff>
				<notations>
					<slur type="start" number="1"/>
				</notations>
			</note>
			<note>
				<pitch>
					<step>F</step>
					<octave>5</octave>
				</pitch>
				<duration>1</duration>
				<voice>1</voice>
				<type>eighth</type>
				<stem>down</stem>
				<staff>1</staff>
				<notations>
					<slur type="continue" number="1"/>
				</notations>
			</note>
			<backup>
				<duration>6</duration>
			</backup>
			<note>
				<pitch>
					<step>B</step>
					<alter>-1</alter>
					<octave>3</octave>
				</pitch>
				<duration>2</duration>
				<voice>2</voice>
				<type>quarter</type>
				<stem>down</stem>
				<staff>2</staff>
				<notations>
					<slur type="continue" number="1"/>
				</notations>
			</note>
			<note>
				<pitch>
					<step>E</step>
					<alter>-1</alter>
					<octave>3</octave>
				</pitch>
				<duration>4</duration>
				<voice>2</voice>
				<type>half</type>
				<stem>down</stem>
				<staff>2</staff>
				<notations>
					<slur type="continue" number="1"/>
				</notations>
			</note>
			<note>
				<chord/>
				<pitch>
					<step>B</step>
					<alter>-1</alter>
					<octave>3</octave>
				</pitch>
				<duration>4</duration>
				<voice>2</voice>
				<type>half</type>
				<stem>down</stem>
				<staff>2</staff>
			</note>
		</measure>
		<measure number="39">
			<attributes>
				<divisions>1</divisions>
				<staves>2</staves>
			</attributes>
			<harmony>
				<root>
					<root-step>A</root-step>
					<root-alter>-1</root-alter>
				</root>
				<kind parentheses-degrees="no">major</kind>
			</harmony>
			<note>
				<pitch>
					<step>C</step>
					<octave>5</octave>
				</pitch>
				<duration>1</duration>
				<voice>1</voice>
				<type>quarter</type>
				<stem>down</stem>
				<staff>1</staff>
				<notations>
					<slur type="continue" number="1"/>
				</notations>
			</note>
			<harmony>
				<root>
					<root-step>C</root-step>
				</root>
				<kind parentheses-degrees="no">minor</kind>
			</harmony>
			<note>
				<pitch>
					<step>E</step>
					<alter>-1</alter>
					<octave>5</octave>
				</pitch>
				<duration>1</duration>
				<voice>1</voice>
				<type>quarter</type>
				<stem>down</stem>
				<staff>1</staff>
				<notations>
					<slur type="continue" number="1"/>
				</notations>
			</note>
			<harmony>
				<root>
					<root-step>G</root-step>
				</root>
				<kind parentheses-degrees="no">dominant</kind>
			</harmony>
			<note>
				<pitch>
					<step>D</step>
					<octave>5</octave>
				</pitch>
				<duration>1</duration>
				<voice>1</voice>
				<type>quarter</type>
				<stem>down</stem>
				<staff>1</staff>
				<notations>
					<slur type="continue" number="1"/>
				</notations>
			</note>
			<backup>
				<duration>3</duration>
			</backup>
			<note>
				<pitch>
					<step>A</step>
					<alter>-1</alter>
					<octave>3</octave>
				</pitch>
				<duration>1</duration>
				<voice>2</voice>
				<type>quarter</type>
				<stem>down</stem>
				<staff>2</staff>
				<notations>
					<slur type="continue" number="1"/>
				</notations>
			</note>
			<note>
				<pitch>
					<step>G</step>
					<octave>3</octave>
				</pitch>
				<duration>1</duration>
				<voice>2</voice>
				<type>quarter</type>
				<stem>down</stem>
				<notehead>square</notehead>
				<staff>2</staff>
				<notations>
					<slur type="continue" number="1"/>
				</notations>
			</note>
			<note>
				<pitch>
					<step>G</step>
					<octave>2</octave>
				</pitch>
				<duration>1</duration>
				<voice>2</voice>
				<type>quarter</type>
				<stem>up</stem>
				<staff>2</staff>
				<notations>
					<slur type="continue" number="1"/>
				</notations>
			</note>
			<note>
				<chord/>
				<pitch>
					<step>F</step>
					<octave>3</octave>
				</pitch>
				<duration>1</duration>
				<voice>2</voice>
				<type>quarter</type>
				<stem>up</stem>
				<staff>2</staff>
			</note>
		</measure>
		<measure number="40">
			<attributes>
				<divisions>1</divisions>
				<staves>2</staves>
			</attributes>
			<harmony>
				<root>
					<root-step>C</root-step>
				</root>
				<kind parentheses-degrees="no">major</kind>
			</harmony>
			<note>
				<pitch>
					<step>C</step>
					<octave>5</octave>
				</pitch>
				<duration>2</duration>
				<voice>1</voice>
				<type>half</type>
				<stem>down</stem>
				<staff>1</staff>
				<notations>
					<slur type="stop" number="1"/>
				</notations>
			</note>
			<note>
				<rest/>
				<duration>1</duration>
				<voice>1</voice>
				<type>quarter</type>
				<staff>1</staff>
			</note>
			<backup>
				<duration>3</duration>
			</backup>
			<note>
				<pitch>
					<step>C</step>
					<octave>3</octave>
				</pitch>
				<duration>2</duration>
				<voice>2</voice>
				<type>half</type>
				<stem>down</stem>
				<staff>2</staff>
				<notations>
					<fermata/>
				</notations>
			</note>
			<note>
				<chord/>
				<pitch>
					<step>E</step>
					<octave>3</octave>
				</pitch>
				<duration>2</duration>
				<voice>2</voice>
				<type>half</type>
				<accidental>natural</accidental>
				<stem>down</stem>
				<staff>2</staff>
			</note>
			<note>
				<rest/>
				<duration>1</duration>
				<voice>2</voice>
				<type>quarter</type>
				<staff>2</staff>
			</note>
			<barline location="right">
				<bar-style>light-heavy</bar-style>
			</barline>
		</measure>
	</part>
</score-partwise>
